  0
SECTION
  2
HEADER
  9
$ACADVER
  1
AC1014
  9
$HANDSEED
  5
FFFF
  9
$MEASUREMENT
 70
     1
  0
ENDSEC
  0
SECTION
  2
TABLES
  0
TABLE
  2
VPORT
  5
8
330
0
100
AcDbSymbolTable
 70
     4
  0
VPORT
  5
2E
330
8
100
AcDbSymbolTableRecord
100
AcDbViewportTableRecord
  2
*ACTIVE
 70
     0
 10
0.0
 20
0.0
 11
1.0
 21
1.0
 12
210.0
 22
148.5
 13
0.0
 23
0.0
 14
10.0
 24
10.0
 15
10.0
 25
10.0
 16
0.0
 26
0.0
 36
1.0
 17
0.0
 27
0.0
 37
0.0
 40
341.0
 41
1.24
 42
50.0
 43
0.0
 44
0.0
 50
0.0
 51
0.0
 71
     0
 72
   100
 73
     1
 74
     3
 75
     0
 76
     0
 77
     0
 78
     0
  0
ENDTAB
  0
TABLE
  2
LTYPE
  5
5
330
0
100
AcDbSymbolTable
 70
     1
  0
LTYPE
  5
14
330
5
100
AcDbSymbolTableRecord
100
AcDbLinetypeTableRecord
  2
BYBLOCK
 70
     0
  3

 72
    65
 73
     0
 40
0.0
  0
LTYPE
  5
15
330
5
100
AcDbSymbolTableRecord
100
AcDbLinetypeTableRecord
  2
BYLAYER
 70
     0
  3

 72
    65
 73
     0
 40
0.0
  0
LTYPE
  5
16
330
5
100
AcDbSymbolTableRecord
100
AcDbLinetypeTableRecord
  2
CONTINUOUS
 70
     0
  3
Solid line
 72
    65
 73
     0
 40
0.0
  0
ENDTAB
  0
TABLE
  2
LAYER
  5
2
100
AcDbSymbolTable
 70
2
  0
LAYER
  5
50
100
AcDbSymbolTableRecord
100
AcDbLayerTableRecord
  2
0
 70
0
  6
CONTINUOUS
  0
LAYER
  5
51
100
AcDbSymbolTableRecord
100
AcDbLayerTableRecord
  2
Layer_1
 70
0
  6
CONTINUOUS
  0
ENDTAB
  0
TABLE
  2
STYLE
  5
3
330
0
100
AcDbSymbolTable
 70
     1
  0
STYLE
  5
11
330
3
100
AcDbSymbolTableRecord
100
AcDbTextStyleTableRecord
  2
STANDARD
 70
     0
 40
0.0
 41
1.0
 50
0.0
 71
     0
 42
2.5
  3
txt
  4

  0
ENDTAB
  0
TABLE
  2
VIEW
  5
6
330
0
100
AcDbSymbolTable
 70
     0
  0
ENDTAB
  0
TABLE
  2
UCS
  5
7
330
0
100
AcDbSymbolTable
 70
     0
  0
ENDTAB
  0
TABLE
  2
APPID
  5
9
330
0
100
AcDbSymbolTable
 70
     2
  0
APPID
  5
12
330
9
100
AcDbSymbolTableRecord
100
AcDbRegAppTableRecord
  2
ACAD
 70
     0
  0
ENDTAB
  0
TABLE
  2
DIMSTYLE
  5
A
330
0
100
AcDbSymbolTable
 70
     1
  0
DIMSTYLE
105
27
330
A
100
AcDbSymbolTableRecord
100
AcDbDimStyleTableRecord
  2
ISO-25
 70
     0
  3

  4

  5

  6

  7

 40
1.0
 41
2.5
 42
0.625
 43
3.75
 44
1.25
 45
0.0
 46
0.0
 47
0.0
 48
0.0
140
2.5
141
2.5
142
0.0
143
0.03937007874016
144
1.0
145
0.0
146
1.0
147
0.625
 71
     0
 72
     0
 73
     0
 74
     0
 75
     0
 76
     0
 77
     1
 78
     8
170
     0
171
     3
172
     1
173
     0
174
     0
175
     0
176
     0
177
     0
178
     0
270
     2
271
     2
272
     2
273
     2
274
     3
340
11
275
     0
280
     0
281
     0
282
     0
283
     0
284
     8
285
     0
286
     0
287
     3
288
     0
  0
ENDTAB
  0
TABLE
  2
BLOCK_RECORD
  5
1
330
0
100
AcDbSymbolTable
 70
     1
  0
BLOCK_RECORD
  5
1F
330
1
100
AcDbSymbolTableRecord
100
AcDbBlockTableRecord
  2
*MODEL_SPACE
  0
BLOCK_RECORD
  5
1B
330
1
100
AcDbSymbolTableRecord
100
AcDbBlockTableRecord
  2
*PAPER_SPACE
  0
ENDTAB
  0
ENDSEC
  0
SECTION
  2
BLOCKS
  0
BLOCK
  5
20
330
1F
100
AcDbEntity
  8
0
100
AcDbBlockBegin
  2
*MODEL_SPACE
 70
     0
 10
0.0
 20
0.0
 30
0.0
  3
*MODEL_SPACE
  1

  0
ENDBLK
  5
21
330
1F
100
AcDbEntity
  8
0
100
AcDbBlockEnd
  0
BLOCK
  5
1C
330
1B
100
AcDbEntity
 67
     1
  8
0
100
AcDbBlockBegin
  2
*PAPER_SPACE
  1

  0
ENDBLK
  5
1D
330
1B
100
AcDbEntity
 67
     1
  8
0
100
AcDbBlockEnd
  0
ENDSEC
  0
SECTION
  2
ENTITIES
  0
SPLINE
  5
100
100
AcDbEntity
  8
Layer_1
 62
7
100
AcDbSpline
 70
8
 71
3
 72
8
 73
4
 74
0
 40
0
 40
0
 40
0
 40
0
 40
1
 40
1
 40
1
 40
1
 10
1.637456
 20
230.050374
 30
0.0
 10
1.216425
 20
230.050374
 30
0.0
 10
0.812638
 20
229.883120
 30
0.0
 10
0.514924
 20
229.585406
 30
0.0
  0
SPLINE
  5
101
100
AcDbEntity
  8
Layer_1
 62
7
100
AcDbSpline
 70
8
 71
3
 72
8
 73
4
 74
0
 40
0
 40
0
 40
0
 40
0
 40
1
 40
1
 40
1
 40
1
 10
0.514924
 20
229.585406
 30
0.0
 10
0.217210
 20
229.287692
 30
0.0
 10
0.049956
 20
228.883905
 30
0.0
 10
0.049956
 20
228.462874
 30
0.0
  0
SPLINE
  5
102
100
AcDbEntity
  8
Layer_1
 62
7
100
AcDbSpline
 70
8
 71
3
 72
8
 73
4
 74
0
 40
0
 40
0
 40
0
 40
0
 40
1
 40
1
 40
1
 40
1
 10
0.049956
 20
42.534681
 30
0.0
 10
0.049956
 20
42.113650
 30
0.0
 10
0.217210
 20
41.709863
 30
0.0
 10
0.514924
 20
41.412149
 30
0.0
  0
SPLINE
  5
103
100
AcDbEntity
  8
Layer_1
 62
7
100
AcDbSpline
 70
8
 71
3
 72
8
 73
4
 74
0
 40
0
 40
0
 40
0
 40
0
 40
1
 40
1
 40
1
 40
1
 10
0.514924
 20
41.412149
 30
0.0
 10
0.812638
 20
41.114435
 30
0.0
 10
1.216425
 20
40.947181
 30
0.0
 10
1.637456
 20
40.947181
 30
0.0
  0
LWPOLYLINE
  5
104
100
AcDbEntity
  8
Layer_1
 62
7
100
AcDbPolyline
 90
2
 70
0
 10
0.049956
 20
228.462874
 30
0.0
 10
0.049956
 20
42.534681
 30
0.0
  0
SPLINE
  5
105
100
AcDbEntity
  8
Layer_1
 62
7
100
AcDbSpline
 70
8
 71
3
 72
8
 73
4
 74
0
 40
0
 40
0
 40
0
 40
0
 40
1
 40
1
 40
1
 40
1
 10
19.360406
 20
40.947181
 30
0.0
 10
19.781437
 20
40.947181
 30
0.0
 10
20.185224
 20
40.779927
 30
0.0
 10
20.482938
 20
40.482213
 30
0.0
  0
SPLINE
  5
106
100
AcDbEntity
  8
Layer_1
 62
7
100
AcDbSpline
 70
8
 71
3
 72
8
 73
4
 74
0
 40
0
 40
0
 40
0
 40
0
 40
1
 40
1
 40
1
 40
1
 10
20.482938
 20
40.482213
 30
0.0
 10
20.780652
 20
40.184499
 30
0.0
 10
20.947906
 20
39.780712
 30
0.0
 10
20.947906
 20
39.359681
 30
0.0
  0
LWPOLYLINE
  5
107
100
AcDbEntity
  8
Layer_1
 62
7
100
AcDbPolyline
 90
2
 70
0
 10
1.637456
 20
40.947181
 30
0.0
 10
19.360406
 20
40.947181
 30
0.0
  0
SPLINE
  5
108
100
AcDbEntity
  8
Layer_1
 62
7
100
AcDbSpline
 70
8
 71
3
 72
8
 73
4
 74
0
 40
0
 40
0
 40
0
 40
0
 40
1
 40
1
 40
1
 40
1
 10
20.947906
 20
22.521949
 30
0.0
 10
20.947906
 20
22.100918
 30
0.0
 10
21.115160
 20
21.697131
 30
0.0
 10
21.412874
 20
21.399417
 30
0.0
  0
SPLINE
  5
109
100
AcDbEntity
  8
Layer_1
 62
7
100
AcDbSpline
 70
8
 71
3
 72
8
 73
4
 74
0
 40
0
 40
0
 40
0
 40
0
 40
1
 40
1
 40
1
 40
1
 10
21.412874
 20
21.399417
 30
0.0
 10
21.710588
 20
21.101703
 30
0.0
 10
22.114375
 20
20.934449
 30
0.0
 10
22.535406
 20
20.934449
 30
0.0
  0
LWPOLYLINE
  5
10a
100
AcDbEntity
  8
Layer_1
 62
7
100
AcDbPolyline
 90
2
 70
0
 10
20.947906
 20
39.359681
 30
0.0
 10
20.947906
 20
22.521949
 30
0.0
  0
SPLINE
  5
10b
100
AcDbEntity
  8
Layer_1
 62
7
100
AcDbSpline
 70
8
 71
3
 72
8
 73
4
 74
0
 40
0
 40
0
 40
0
 40
0
 40
1
 40
1
 40
1
 40
1
 10
39.347818
 20
20.934449
 30
0.0
 10
39.768849
 20
20.934449
 30
0.0
 10
40.172636
 20
20.767195
 30
0.0
 10
40.470350
 20
20.469481
 30
0.0
  0
SPLINE
  5
10c
100
AcDbEntity
  8
Layer_1
 62
7
100
AcDbSpline
 70
8
 71
3
 72
8
 73
4
 74
0
 40
0
 40
0
 40
0
 40
0
 40
1
 40
1
 40
1
 40
1
 10
40.470350
 20
20.469481
 30
0.0
 10
40.768064
 20
20.171767
 30
0.0
 10
40.935318
 20
19.767980
 30
0.0
 10
40.935318
 20
19.346949
 30
0.0
  0
LWPOLYLINE
  5
10d
100
AcDbEntity
  8
Layer_1
 62
7
100
AcDbPolyline
 90
2
 70
0
 10
22.535406
 20
20.934449
 30
0.0
 10
39.347818
 20
20.934449
 30
0.0
  0
SPLINE
  5
10e
100
AcDbEntity
  8
Layer_1
 62
7
100
AcDbSpline
 70
8
 71
3
 72
8
 73
4
 74
0
 40
0
 40
0
 40
0
 40
0
 40
1
 40
1
 40
1
 40
1
 10
40.935318
 20
1.738205
 30
0.0
 10
40.935318
 20
1.317174
 30
0.0
 10
41.102572
 20
0.913387
 30
0.0
 10
41.400286
 20
0.615673
 30
0.0
  0
SPLINE
  5
10f
100
AcDbEntity
  8
Layer_1
 62
7
100
AcDbSpline
 70
8
 71
3
 72
8
 73
4
 74
0
 40
0
 40
0
 40
0
 40
0
 40
1
 40
1
 40
1
 40
1
 10
41.400286
 20
0.615673
 30
0.0
 10
41.698000
 20
0.317959
 30
0.0
 10
42.101787
 20
0.150705
 30
0.0
 10
42.522818
 20
0.150705
 30
0.0
  0
LWPOLYLINE
  5
110
100
AcDbEntity
  8
Layer_1
 62
7
100
AcDbPolyline
 90
2
 70
0
 10
40.935318
 20
19.346949
 30
0.0
 10
40.935318
 20
1.738205
 30
0.0
  0
SPLINE
  5
111
100
AcDbEntity
  8
Layer_1
 62
7
100
AcDbSpline
 70
8
 71
3
 72
8
 73
4
 74
0
 40
0
 40
0
 40
0
 40
0
 40
1
 40
1
 40
1
 40
1
 10
257.565511
 20
0.150705
 30
0.0
 10
257.986542
 20
0.150705
 30
0.0
 10
258.390329
 20
0.317959
 30
0.0
 10
258.688043
 20
0.615673
 30
0.0
  0
SPLINE
  5
112
100
AcDbEntity
  8
Layer_1
 62
7
100
AcDbSpline
 70
8
 71
3
 72
8
 73
4
 74
0
 40
0
 40
0
 40
0
 40
0
 40
1
 40
1
 40
1
 40
1
 10
258.688043
 20
0.615673
 30
0.0
 10
258.985757
 20
0.913387
 30
0.0
 10
259.153011
 20
1.317174
 30
0.0
 10
259.153011
 20
1.738205
 30
0.0
  0
LWPOLYLINE
  5
113
100
AcDbEntity
  8
Layer_1
 62
7
100
AcDbPolyline
 90
2
 70
0
 10
42.522818
 20
0.150705
 30
0.0
 10
257.565511
 20
0.150705
 30
0.0
  0
SPLINE
  5
114
100
AcDbEntity
  8
Layer_1
 62
7
100
AcDbSpline
 70
8
 71
3
 72
8
 73
4
 74
0
 40
0
 40
0
 40
0
 40
0
 40
1
 40
1
 40
1
 40
1
 10
259.153011
 20
19.359868
 30
0.0
 10
259.153011
 20
19.780900
 30
0.0
 10
259.320265
 20
20.184687
 30
0.0
 10
259.617979
 20
20.482401
 30
0.0
  0
SPLINE
  5
115
100
AcDbEntity
  8
Layer_1
 62
7
100
AcDbSpline
 70
8
 71
3
 72
8
 73
4
 74
0
 40
0
 40
0
 40
0
 40
0
 40
1
 40
1
 40
1
 40
1
 10
259.617979
 20
20.482401
 30
0.0
 10
259.915693
 20
20.780115
 30
0.0
 10
260.319480
 20
20.947369
 30
0.0
 10
260.740511
 20
20.947369
 30
0.0
  0
LWPOLYLINE
  5
116
100
AcDbEntity
  8
Layer_1
 62
7
100
AcDbPolyline
 90
2
 70
0
 10
259.153011
 20
1.738205
 30
0.0
 10
259.153011
 20
19.359868
 30
0.0
  0
SPLINE
  5
117
100
AcDbEntity
  8
Layer_1
 62
7
100
AcDbSpline
 70
8
 71
3
 72
8
 73
4
 74
0
 40
0
 40
0
 40
0
 40
0
 40
1
 40
1
 40
1
 40
1
 10
277.565853
 20
20.947369
 30
0.0
 10
277.986884
 20
20.947368
 30
0.0
 10
278.390671
 20
21.114622
 30
0.0
 10
278.688385
 20
21.412336
 30
0.0
  0
SPLINE
  5
118
100
AcDbEntity
  8
Layer_1
 62
7
100
AcDbSpline
 70
8
 71
3
 72
8
 73
4
 74
0
 40
0
 40
0
 40
0
 40
0
 40
1
 40
1
 40
1
 40
1
 10
278.688385
 20
21.412336
 30
0.0
 10
278.986099
 20
21.710050
 30
0.0
 10
279.153353
 20
22.113837
 30
0.0
 10
279.153353
 20
22.534869
 30
0.0
  0
LWPOLYLINE
  5
119
100
AcDbEntity
  8
Layer_1
 62
7
100
AcDbPolyline
 90
2
 70
0
 10
260.740511
 20
20.947369
 30
0.0
 10
277.565853
 20
20.947369
 30
0.0
  0
SPLINE
  5
11a
100
AcDbEntity
  8
Layer_1
 62
7
100
AcDbSpline
 70
8
 71
3
 72
8
 73
4
 74
0
 40
0
 40
0
 40
0
 40
0
 40
1
 40
1
 40
1
 40
1
 10
279.153353
 20
39.359681
 30
0.0
 10
279.153353
 20
39.780712
 30
0.0
 10
279.320607
 20
40.184499
 30
0.0
 10
279.618321
 20
40.482213
 30
0.0
  0
SPLINE
  5
11b
100
AcDbEntity
  8
Layer_1
 62
7
100
AcDbSpline
 70
8
 71
3
 72
8
 73
4
 74
0
 40
0
 40
0
 40
0
 40
0
 40
1
 40
1
 40
1
 40
1
 10
279.618321
 20
40.482213
 30
0.0
 10
279.916035
 20
40.779927
 30
0.0
 10
280.319822
 20
40.947181
 30
0.0
 10
280.740853
 20
40.947181
 30
0.0
  0
LWPOLYLINE
  5
11c
100
AcDbEntity
  8
Layer_1
 62
7
100
AcDbPolyline
 90
2
 70
0
 10
279.153353
 20
22.534869
 30
0.0
 10
279.153353
 20
39.359681
 30
0.0
  0
SPLINE
  5
11d
100
AcDbEntity
  8
Layer_1
 62
7
100
AcDbSpline
 70
8
 71
3
 72
8
 73
4
 74
0
 40
0
 40
0
 40
0
 40
0
 40
1
 40
1
 40
1
 40
1
 10
298.362500
 20
40.947181
 30
0.0
 10
298.783531
 20
40.947181
 30
0.0
 10
299.187318
 20
41.114435
 30
0.0
 10
299.485032
 20
41.412149
 30
0.0
  0
SPLINE
  5
11e
100
AcDbEntity
  8
Layer_1
 62
7
100
AcDbSpline
 70
8
 71
3
 72
8
 73
4
 74
0
 40
0
 40
0
 40
0
 40
0
 40
1
 40
1
 40
1
 40
1
 10
299.485032
 20
41.412149
 30
0.0
 10
299.782746
 20
41.709863
 30
0.0
 10
299.950000
 20
42.113650
 30
0.0
 10
299.950000
 20
42.534681
 30
0.0
  0
LWPOLYLINE
  5
11f
100
AcDbEntity
  8
Layer_1
 62
7
100
AcDbPolyline
 90
2
 70
0
 10
280.740853
 20
40.947181
 30
0.0
 10
298.362500
 20
40.947181
 30
0.0
  0
SPLINE
  5
120
100
AcDbEntity
  8
Layer_1
 62
7
100
AcDbSpline
 70
8
 71
3
 72
8
 73
4
 74
0
 40
0
 40
0
 40
0
 40
0
 40
1
 40
1
 40
1
 40
1
 10
299.950000
 20
228.462874
 30
0.0
 10
299.950000
 20
228.883905
 30
0.0
 10
299.782746
 20
229.287692
 30
0.0
 10
299.485032
 20
229.585406
 30
0.0
  0
SPLINE
  5
121
100
AcDbEntity
  8
Layer_1
 62
7
100
AcDbSpline
 70
8
 71
3
 72
8
 73
4
 74
0
 40
0
 40
0
 40
0
 40
0
 40
1
 40
1
 40
1
 40
1
 10
299.485032
 20
229.585406
 30
0.0
 10
299.187318
 20
229.883120
 30
0.0
 10
298.783531
 20
230.050374
 30
0.0
 10
298.362500
 20
230.050374
 30
0.0
  0
LWPOLYLINE
  5
122
100
AcDbEntity
  8
Layer_1
 62
7
100
AcDbPolyline
 90
2
 70
0
 10
299.950000
 20
42.534681
 30
0.0
 10
299.950000
 20
228.462874
 30
0.0
  0
SPLINE
  5
123
100
AcDbEntity
  8
Layer_1
 62
7
100
AcDbSpline
 70
8
 71
3
 72
8
 73
4
 74
0
 40
0
 40
0
 40
0
 40
0
 40
1
 40
1
 40
1
 40
1
 10
281.548546
 20
230.050374
 30
0.0
 10
281.127515
 20
230.050374
 30
0.0
 10
280.723728
 20
229.883120
 30
0.0
 10
280.426014
 20
229.585406
 30
0.0
  0
SPLINE
  5
124
100
AcDbEntity
  8
Layer_1
 62
7
100
AcDbSpline
 70
8
 71
3
 72
8
 73
4
 74
0
 40
0
 40
0
 40
0
 40
0
 40
1
 40
1
 40
1
 40
1
 10
280.426014
 20
229.585406
 30
0.0
 10
280.128300
 20
229.287692
 30
0.0
 10
279.961046
 20
228.883905
 30
0.0
 10
279.961046
 20
228.462874
 30
0.0
  0
LWPOLYLINE
  5
125
100
AcDbEntity
  8
Layer_1
 62
7
100
AcDbPolyline
 90
2
 70
0
 10
298.362500
 20
230.050374
 30
0.0
 10
281.548546
 20
230.050374
 30
0.0
  0
SPLINE
  5
126
100
AcDbEntity
  8
Layer_1
 62
7
100
AcDbSpline
 70
8
 71
3
 72
8
 73
4
 74
0
 40
0
 40
0
 40
0
 40
0
 40
1
 40
1
 40
1
 40
1
 10
279.961046
 20
207.726671
 30
0.0
 10
279.961046
 20
207.305640
 30
0.0
 10
279.793792
 20
206.901853
 30
0.0
 10
279.496078
 20
206.604139
 30
0.0
  0
SPLINE
  5
127
100
AcDbEntity
  8
Layer_1
 62
7
100
AcDbSpline
 70
8
 71
3
 72
8
 73
4
 74
0
 40
0
 40
0
 40
0
 40
0
 40
1
 40
1
 40
1
 40
1
 10
279.496078
 20
206.604139
 30
0.0
 10
279.198364
 20
206.306425
 30
0.0
 10
278.794578
 20
206.139171
 30
0.0
 10
278.373546
 20
206.139171
 30
0.0
  0
LWPOLYLINE
  5
128
100
AcDbEntity
  8
Layer_1
 62
7
100
AcDbPolyline
 90
2
 70
0
 10
279.961046
 20
228.462874
 30
0.0
 10
279.961046
 20
207.726671
 30
0.0
  0
SPLINE
  5
129
100
AcDbEntity
  8
Layer_1
 62
7
100
AcDbSpline
 70
8
 71
3
 72
8
 73
4
 74
0
 40
0
 40
0
 40
0
 40
0
 40
1
 40
1
 40
1
 40
1
 10
261.625730
 20
206.139171
 30
0.0
 10
261.204699
 20
206.139171
 30
0.0
 10
260.800912
 20
206.306425
 30
0.0
 10
260.503198
 20
206.604139
 30
0.0
  0
SPLINE
  5
12a
100
AcDbEntity
  8
Layer_1
 62
7
100
AcDbSpline
 70
8
 71
3
 72
8
 73
4
 74
0
 40
0
 40
0
 40
0
 40
0
 40
1
 40
1
 40
1
 40
1
 10
260.503198
 20
206.604139
 30
0.0
 10
260.205484
 20
206.901853
 30
0.0
 10
260.038230
 20
207.305640
 30
0.0
 10
260.038230
 20
207.726671
 30
0.0
  0
LWPOLYLINE
  5
12b
100
AcDbEntity
  8
Layer_1
 62
7
100
AcDbPolyline
 90
2
 70
0
 10
278.373546
 20
206.139171
 30
0.0
 10
261.625730
 20
206.139171
 30
0.0
  0
SPLINE
  5
12c
100
AcDbEntity
  8
Layer_1
 62
7
100
AcDbSpline
 70
8
 71
3
 72
8
 73
4
 74
0
 40
0
 40
0
 40
0
 40
0
 40
1
 40
1
 40
1
 40
1
 10
260.038230
 20
228.462874
 30
0.0
 10
260.038230
 20
228.883905
 30
0.0
 10
259.870976
 20
229.287692
 30
0.0
 10
259.573262
 20
229.585406
 30
0.0
  0
SPLINE
  5
12d
100
AcDbEntity
  8
Layer_1
 62
7
100
AcDbSpline
 70
8
 71
3
 72
8
 73
4
 74
0
 40
0
 40
0
 40
0
 40
0
 40
1
 40
1
 40
1
 40
1
 10
259.573262
 20
229.585406
 30
0.0
 10
259.275548
 20
229.883120
 30
0.0
 10
258.871761
 20
230.050374
 30
0.0
 10
258.450730
 20
230.050374
 30
0.0
  0
LWPOLYLINE
  5
12e
100
AcDbEntity
  8
Layer_1
 62
7
100
AcDbPolyline
 90
2
 70
0
 10
260.038230
 20
207.726671
 30
0.0
 10
260.038230
 20
228.462874
 30
0.0
  0
SPLINE
  5
12f
100
AcDbEntity
  8
Layer_1
 62
7
100
AcDbSpline
 70
8
 71
3
 72
8
 73
4
 74
0
 40
0
 40
0
 40
0
 40
0
 40
1
 40
1
 40
1
 40
1
 10
204.050429
 20
230.050374
 30
0.0
 10
203.629398
 20
230.050374
 30
0.0
 10
203.225611
 20
229.883120
 30
0.0
 10
202.927897
 20
229.585406
 30
0.0
  0
SPLINE
  5
130
100
AcDbEntity
  8
Layer_1
 62
7
100
AcDbSpline
 70
8
 71
3
 72
8
 73
4
 74
0
 40
0
 40
0
 40
0
 40
0
 40
1
 40
1
 40
1
 40
1
 10
202.927897
 20
229.585406
 30
0.0
 10
202.630183
 20
229.287692
 30
0.0
 10
202.462929
 20
228.883905
 30
0.0
 10
202.462929
 20
228.462874
 30
0.0
  0
LWPOLYLINE
  5
131
100
AcDbEntity
  8
Layer_1
 62
7
100
AcDbPolyline
 90
2
 70
0
 10
258.450730
 20
230.050374
 30
0.0
 10
204.050429
 20
230.050374
 30
0.0
  0
SPLINE
  5
132
100
AcDbEntity
  8
Layer_1
 62
7
100
AcDbSpline
 70
8
 71
3
 72
8
 73
4
 74
0
 40
0
 40
0
 40
0
 40
0
 40
1
 40
1
 40
1
 40
1
 10
202.462929
 20
210.724938
 30
0.0
 10
202.462929
 20
210.303907
 30
0.0
 10
202.295675
 20
209.900120
 30
0.0
 10
201.997961
 20
209.602406
 30
0.0
  0
SPLINE
  5
133
100
AcDbEntity
  8
Layer_1
 62
7
100
AcDbSpline
 70
8
 71
3
 72
8
 73
4
 74
0
 40
0
 40
0
 40
0
 40
0
 40
1
 40
1
 40
1
 40
1
 10
201.997961
 20
209.602406
 30
0.0
 10
201.700247
 20
209.304692
 30
0.0
 10
201.296460
 20
209.137438
 30
0.0
 10
200.875429
 20
209.137438
 30
0.0
  0
LWPOLYLINE
  5
134
100
AcDbEntity
  8
Layer_1
 62
7
100
AcDbPolyline
 90
2
 70
0
 10
202.462929
 20
228.462874
 30
0.0
 10
202.462929
 20
210.724938
 30
0.0
  0
SPLINE
  5
135
100
AcDbEntity
  8
Layer_1
 62
7
100
AcDbSpline
 70
8
 71
3
 72
8
 73
4
 74
0
 40
0
 40
0
 40
0
 40
0
 40
1
 40
1
 40
1
 40
1
 10
183.124575
 20
209.137438
 30
0.0
 10
182.703544
 20
209.137438
 30
0.0
 10
182.299757
 20
209.304692
 30
0.0
 10
182.002043
 20
209.602406
 30
0.0
  0
SPLINE
  5
136
100
AcDbEntity
  8
Layer_1
 62
7
100
AcDbSpline
 70
8
 71
3
 72
8
 73
4
 74
0
 40
0
 40
0
 40
0
 40
0
 40
1
 40
1
 40
1
 40
1
 10
182.002043
 20
209.602406
 30
0.0
 10
181.704329
 20
209.900120
 30
0.0
 10
181.537075
 20
210.303907
 30
0.0
 10
181.537075
 20
210.724938
 30
0.0
  0
LWPOLYLINE
  5
137
100
AcDbEntity
  8
Layer_1
 62
7
100
AcDbPolyline
 90
2
 70
0
 10
200.875429
 20
209.137438
 30
0.0
 10
183.124575
 20
209.137438
 30
0.0
  0
SPLINE
  5
138
100
AcDbEntity
  8
Layer_1
 62
7
100
AcDbSpline
 70
8
 71
3
 72
8
 73
4
 74
0
 40
0
 40
0
 40
0
 40
0
 40
1
 40
1
 40
1
 40
1
 10
181.537075
 20
228.462874
 30
0.0
 10
181.537075
 20
228.883905
 30
0.0
 10
181.369821
 20
229.287692
 30
0.0
 10
181.072107
 20
229.585406
 30
0.0
  0
SPLINE
  5
139
100
AcDbEntity
  8
Layer_1
 62
7
100
AcDbSpline
 70
8
 71
3
 72
8
 73
4
 74
0
 40
0
 40
0
 40
0
 40
0
 40
1
 40
1
 40
1
 40
1
 10
181.072107
 20
229.585406
 30
0.0
 10
180.774393
 20
229.883120
 30
0.0
 10
180.370606
 20
230.050374
 30
0.0
 10
179.949575
 20
230.050374
 30
0.0
  0
LWPOLYLINE
  5
13a
100
AcDbEntity
  8
Layer_1
 62
7
100
AcDbPolyline
 90
2
 70
0
 10
181.537075
 20
210.724938
 30
0.0
 10
181.537075
 20
228.462874
 30
0.0
  0
SPLINE
  5
13b
100
AcDbEntity
  8
Layer_1
 62
7
100
AcDbSpline
 70
8
 71
3
 72
8
 73
4
 74
0
 40
0
 40
0
 40
0
 40
0
 40
1
 40
1
 40
1
 40
1
 10
174.534401
 20
230.050374
 30
0.0
 10
174.113370
 20
230.050374
 30
0.0
 10
173.709583
 20
229.883120
 30
0.0
 10
173.411869
 20
229.585406
 30
0.0
  0
SPLINE
  5
13c
100
AcDbEntity
  8
Layer_1
 62
7
100
AcDbSpline
 70
8
 71
3
 72
8
 73
4
 74
0
 40
0
 40
0
 40
0
 40
0
 40
1
 40
1
 40
1
 40
1
 10
173.411869
 20
229.585406
 30
0.0
 10
173.114155
 20
229.287692
 30
0.0
 10
172.946901
 20
228.883905
 30
0.0
 10
172.946901
 20
228.462874
 30
0.0
  0
LWPOLYLINE
  5
13d
100
AcDbEntity
  8
Layer_1
 62
7
100
AcDbPolyline
 90
2
 70
0
 10
179.949575
 20
230.050374
 30
0.0
 10
174.534401
 20
230.050374
 30
0.0
  0
SPLINE
  5
13e
100
AcDbEntity
  8
Layer_1
 62
7
100
AcDbSpline
 70
8
 71
3
 72
8
 73
4
 74
0
 40
0
 40
0
 40
0
 40
0
 40
1
 40
1
 40
1
 40
1
 10
172.946901
 20
185.740933
 30
0.0
 10
172.946901
 20
185.319902
 30
0.0
 10
172.779647
 20
184.916115
 30
0.0
 10
172.481933
 20
184.618401
 30
0.0
  0
SPLINE
  5
13f
100
AcDbEntity
  8
Layer_1
 62
7
100
AcDbSpline
 70
8
 71
3
 72
8
 73
4
 74
0
 40
0
 40
0
 40
0
 40
0
 40
1
 40
1
 40
1
 40
1
 10
172.481933
 20
184.618401
 30
0.0
 10
172.184219
 20
184.320687
 30
0.0
 10
171.780432
 20
184.153433
 30
0.0
 10
171.359401
 20
184.153433
 30
0.0
  0
LWPOLYLINE
  5
140
100
AcDbEntity
  8
Layer_1
 62
7
100
AcDbPolyline
 90
2
 70
0
 10
172.946901
 20
228.462874
 30
0.0
 10
172.946901
 20
185.740933
 30
0.0
  0
SPLINE
  5
141
100
AcDbEntity
  8
Layer_1
 62
7
100
AcDbSpline
 70
8
 71
3
 72
8
 73
4
 74
0
 40
0
 40
0
 40
0
 40
0
 40
1
 40
1
 40
1
 40
1
 10
128.640044
 20
184.153433
 30
0.0
 10
128.219013
 20
184.153433
 30
0.0
 10
127.815226
 20
184.320687
 30
0.0
 10
127.517512
 20
184.618401
 30
0.0
  0
SPLINE
  5
142
100
AcDbEntity
  8
Layer_1
 62
7
100
AcDbSpline
 70
8
 71
3
 72
8
 73
4
 74
0
 40
0
 40
0
 40
0
 40
0
 40
1
 40
1
 40
1
 40
1
 10
127.517512
 20
184.618401
 30
0.0
 10
127.219798
 20
184.916115
 30
0.0
 10
127.052544
 20
185.319902
 30
0.0
 10
127.052544
 20
185.740933
 30
0.0
  0
LWPOLYLINE
  5
143
100
AcDbEntity
  8
Layer_1
 62
7
100
AcDbPolyline
 90
2
 70
0
 10
171.359401
 20
184.153433
 30
0.0
 10
128.640044
 20
184.153433
 30
0.0
  0
SPLINE
  5
144
100
AcDbEntity
  8
Layer_1
 62
7
100
AcDbSpline
 70
8
 71
3
 72
8
 73
4
 74
0
 40
0
 40
0
 40
0
 40
0
 40
1
 40
1
 40
1
 40
1
 10
127.052544
 20
228.462874
 30
0.0
 10
127.052544
 20
228.883905
 30
0.0
 10
126.885290
 20
229.287692
 30
0.0
 10
126.587576
 20
229.585406
 30
0.0
  0
SPLINE
  5
145
100
AcDbEntity
  8
Layer_1
 62
7
100
AcDbSpline
 70
8
 71
3
 72
8
 73
4
 74
0
 40
0
 40
0
 40
0
 40
0
 40
1
 40
1
 40
1
 40
1
 10
126.587576
 20
229.585406
 30
0.0
 10
126.289862
 20
229.883120
 30
0.0
 10
125.886075
 20
230.050374
 30
0.0
 10
125.465044
 20
230.050374
 30
0.0
  0
LWPOLYLINE
  5
146
100
AcDbEntity
  8
Layer_1
 62
7
100
AcDbPolyline
 90
2
 70
0
 10
127.052544
 20
185.740933
 30
0.0
 10
127.052544
 20
228.462874
 30
0.0
  0
SPLINE
  5
147
100
AcDbEntity
  8
Layer_1
 62
7
100
AcDbSpline
 70
8
 71
3
 72
8
 73
4
 74
0
 40
0
 40
0
 40
0
 40
0
 40
1
 40
1
 40
1
 40
1
 10
120.050388
 20
230.050374
 30
0.0
 10
119.629357
 20
230.050374
 30
0.0
 10
119.225570
 20
229.883120
 30
0.0
 10
118.927856
 20
229.585406
 30
0.0
  0
SPLINE
  5
148
100
AcDbEntity
  8
Layer_1
 62
7
100
AcDbSpline
 70
8
 71
3
 72
8
 73
4
 74
0
 40
0
 40
0
 40
0
 40
0
 40
1
 40
1
 40
1
 40
1
 10
118.927856
 20
229.585406
 30
0.0
 10
118.630142
 20
229.287692
 30
0.0
 10
118.462888
 20
228.883905
 30
0.0
 10
118.462888
 20
228.462874
 30
0.0
  0
LWPOLYLINE
  5
149
100
AcDbEntity
  8
Layer_1
 62
7
100
AcDbPolyline
 90
2
 70
0
 10
125.465044
 20
230.050374
 30
0.0
 10
120.050388
 20
230.050374
 30
0.0
  0
SPLINE
  5
14a
100
AcDbEntity
  8
Layer_1
 62
7
100
AcDbSpline
 70
8
 71
3
 72
8
 73
4
 74
0
 40
0
 40
0
 40
0
 40
0
 40
1
 40
1
 40
1
 40
1
 10
118.462888
 20
210.724938
 30
0.0
 10
118.462888
 20
210.303907
 30
0.0
 10
118.295634
 20
209.900120
 30
0.0
 10
117.997920
 20
209.602406
 30
0.0
  0
SPLINE
  5
14b
100
AcDbEntity
  8
Layer_1
 62
7
100
AcDbSpline
 70
8
 71
3
 72
8
 73
4
 74
0
 40
0
 40
0
 40
0
 40
0
 40
1
 40
1
 40
1
 40
1
 10
117.997920
 20
209.602406
 30
0.0
 10
117.700206
 20
209.304692
 30
0.0
 10
117.296420
 20
209.137438
 30
0.0
 10
116.875388
 20
209.137438
 30
0.0
  0
LWPOLYLINE
  5
14c
100
AcDbEntity
  8
Layer_1
 62
7
100
AcDbPolyline
 90
2
 70
0
 10
118.462888
 20
228.462874
 30
0.0
 10
118.462888
 20
210.724938
 30
0.0
  0
SPLINE
  5
14d
100
AcDbEntity
  8
Layer_1
 62
7
100
AcDbSpline
 70
8
 71
3
 72
8
 73
4
 74
0
 40
0
 40
0
 40
0
 40
0
 40
1
 40
1
 40
1
 40
1
 10
99.124532
 20
209.137438
 30
0.0
 10
98.703500
 20
209.137438
 30
0.0
 10
98.299714
 20
209.304692
 30
0.0
 10
98.001999
 20
209.602406
 30
0.0
  0
SPLINE
  5
14e
100
AcDbEntity
  8
Layer_1
 62
7
100
AcDbSpline
 70
8
 71
3
 72
8
 73
4
 74
0
 40
0
 40
0
 40
0
 40
0
 40
1
 40
1
 40
1
 40
1
 10
98.001999
 20
209.602406
 30
0.0
 10
97.704285
 20
209.900120
 30
0.0
 10
97.537031
 20
210.303907
 30
0.0
 10
97.537032
 20
210.724938
 30
0.0
  0
LWPOLYLINE
  5
14f
100
AcDbEntity
  8
Layer_1
 62
7
100
AcDbPolyline
 90
2
 70
0
 10
116.875388
 20
209.137438
 30
0.0
 10
99.124532
 20
209.137438
 30
0.0
  0
SPLINE
  5
150
100
AcDbEntity
  8
Layer_1
 62
7
100
AcDbSpline
 70
8
 71
3
 72
8
 73
4
 74
0
 40
0
 40
0
 40
0
 40
0
 40
1
 40
1
 40
1
 40
1
 10
97.537032
 20
228.462874
 30
0.0
 10
97.537032
 20
228.883905
 30
0.0
 10
97.369778
 20
229.287692
 30
0.0
 10
97.072064
 20
229.585406
 30
0.0
  0
SPLINE
  5
151
100
AcDbEntity
  8
Layer_1
 62
7
100
AcDbSpline
 70
8
 71
3
 72
8
 73
4
 74
0
 40
0
 40
0
 40
0
 40
0
 40
1
 40
1
 40
1
 40
1
 10
97.072064
 20
229.585406
 30
0.0
 10
96.774350
 20
229.883120
 30
0.0
 10
96.370563
 20
230.050374
 30
0.0
 10
95.949532
 20
230.050374
 30
0.0
  0
LWPOLYLINE
  5
152
100
AcDbEntity
  8
Layer_1
 62
7
100
AcDbPolyline
 90
2
 70
0
 10
97.537032
 20
210.724938
 30
0.0
 10
97.537032
 20
228.462874
 30
0.0
  0
LWPOLYLINE
  5
153
100
AcDbEntity
  8
Layer_1
 62
7
100
AcDbPolyline
 90
3
 70
0
 10
95.949532
 20
230.050374
 30
0.0
 10
1.637456
 20
230.050374
 30
0.0
 10
1.637456
 20
230.050374
 30
0.0
  0
SPLINE
  5
154
100
AcDbEntity
  8
Layer_1
 62
7
100
AcDbSpline
 70
8
 71
3
 72
8
 73
4
 74
0
 40
0
 40
0
 40
0
 40
0
 40
1
 40
1
 40
1
 40
1
 10
11.480783
 20
220.050467
 30
0.0
 10
12.848403
 20
220.050467
 30
0.0
 10
13.949883
 20
218.913352
 30
0.0
 10
13.949883
 20
217.500752
 30
0.0
  0
SPLINE
  5
155
100
AcDbEntity
  8
Layer_1
 62
7
100
AcDbSpline
 70
8
 71
3
 72
8
 73
4
 74
0
 40
0
 40
0
 40
0
 40
0
 40
1
 40
1
 40
1
 40
1
 10
13.949883
 20
217.500752
 30
0.0
 10
13.949883
 20
216.088152
 30
0.0
 10
12.848403
 20
214.950520
 30
0.0
 10
11.480783
 20
214.950520
 30
0.0
  0
LWPOLYLINE
  5
156
100
AcDbEntity
  8
Layer_1
 62
7
100
AcDbPolyline
 90
2
 70
0
 10
8.518690
 20
220.050467
 30
0.0
 10
11.480783
 20
220.050467
 30
0.0
  0
SPLINE
  5
157
100
AcDbEntity
  8
Layer_1
 62
7
100
AcDbSpline
 70
8
 71
3
 72
8
 73
4
 74
0
 40
0
 40
0
 40
0
 40
0
 40
1
 40
1
 40
1
 40
1
 10
8.518690
 20
214.950520
 30
0.0
 10
7.151070
 20
214.950520
 30
0.0
 10
6.050107
 20
216.088152
 30
0.0
 10
6.050107
 20
217.500752
 30
0.0
  0
SPLINE
  5
158
100
AcDbEntity
  8
Layer_1
 62
7
100
AcDbSpline
 70
8
 71
3
 72
8
 73
4
 74
0
 40
0
 40
0
 40
0
 40
0
 40
1
 40
1
 40
1
 40
1
 10
6.050107
 20
217.500752
 30
0.0
 10
6.050107
 20
218.913352
 30
0.0
 10
7.151070
 20
220.050467
 30
0.0
 10
8.518690
 20
220.050467
 30
0.0
  0
LWPOLYLINE
  5
159
100
AcDbEntity
  8
Layer_1
 62
7
100
AcDbPolyline
 90
2
 70
0
 10
11.480783
 20
214.950520
 30
0.0
 10
8.518690
 20
214.950520
 30
0.0
  0
LWPOLYLINE
  5
15a
100
AcDbEntity
  8
Layer_1
 62
7
100
AcDbPolyline
 90
1
 70
1
 10
8.518690
 20
220.050467
 30
0.0
  0
SPLINE
  5
15b
100
AcDbEntity
  8
Layer_1
 62
7
100
AcDbSpline
 70
8
 71
3
 72
8
 73
4
 74
0
 40
0
 40
0
 40
0
 40
0
 40
1
 40
1
 40
1
 40
1
 10
291.481270
 20
220.050467
 30
0.0
 10
292.848901
 20
220.050467
 30
0.0
 10
293.949859
 20
218.913352
 30
0.0
 10
293.949859
 20
217.500752
 30
0.0
  0
SPLINE
  5
15c
100
AcDbEntity
  8
Layer_1
 62
7
100
AcDbSpline
 70
8
 71
3
 72
8
 73
4
 74
0
 40
0
 40
0
 40
0
 40
0
 40
1
 40
1
 40
1
 40
1
 10
293.949859
 20
217.500752
 30
0.0
 10
293.949859
 20
216.088152
 30
0.0
 10
292.848901
 20
214.950520
 30
0.0
 10
291.481270
 20
214.950520
 30
0.0
  0
LWPOLYLINE
  5
15d
100
AcDbEntity
  8
Layer_1
 62
7
100
AcDbPolyline
 90
2
 70
0
 10
288.518651
 20
220.050467
 30
0.0
 10
291.481270
 20
220.050467
 30
0.0
  0
SPLINE
  5
15e
100
AcDbEntity
  8
Layer_1
 62
7
100
AcDbSpline
 70
8
 71
3
 72
8
 73
4
 74
0
 40
0
 40
0
 40
0
 40
0
 40
1
 40
1
 40
1
 40
1
 10
288.518651
 20
214.950520
 30
0.0
 10
287.151046
 20
214.950520
 30
0.0
 10
286.050088
 20
216.088152
 30
0.0
 10
286.050088
 20
217.500752
 30
0.0
  0
SPLINE
  5
15f
100
AcDbEntity
  8
Layer_1
 62
7
100
AcDbSpline
 70
8
 71
3
 72
8
 73
4
 74
0
 40
0
 40
0
 40
0
 40
0
 40
1
 40
1
 40
1
 40
1
 10
286.050088
 20
217.500752
 30
0.0
 10
286.050088
 20
218.913352
 30
0.0
 10
287.151046
 20
220.050467
 30
0.0
 10
288.518651
 20
220.050467
 30
0.0
  0
LWPOLYLINE
  5
160
100
AcDbEntity
  8
Layer_1
 62
7
100
AcDbPolyline
 90
2
 70
0
 10
291.481270
 20
214.950520
 30
0.0
 10
288.518651
 20
214.950520
 30
0.0
  0
LWPOLYLINE
  5
161
100
AcDbEntity
  8
Layer_1
 62
7
100
AcDbPolyline
 90
1
 70
1
 10
288.518651
 20
220.050467
 30
0.0
  0
SPLINE
  5
162
100
AcDbEntity
  8
Layer_1
 62
7
100
AcDbSpline
 70
8
 71
3
 72
8
 73
4
 74
0
 40
0
 40
0
 40
0
 40
0
 40
1
 40
1
 40
1
 40
1
 10
11.480783
 20
166.050144
 30
0.0
 10
12.848403
 20
166.050144
 30
0.0
 10
13.949883
 20
164.913028
 30
0.0
 10
13.949883
 20
163.500428
 30
0.0
  0
SPLINE
  5
163
100
AcDbEntity
  8
Layer_1
 62
7
100
AcDbSpline
 70
8
 71
3
 72
8
 73
4
 74
0
 40
0
 40
0
 40
0
 40
0
 40
1
 40
1
 40
1
 40
1
 10
13.949883
 20
163.500428
 30
0.0
 10
13.949883
 20
162.087828
 30
0.0
 10
12.848403
 20
160.950712
 30
0.0
 10
11.480783
 20
160.950712
 30
0.0
  0
LWPOLYLINE
  5
164
100
AcDbEntity
  8
Layer_1
 62
7
100
AcDbPolyline
 90
2
 70
0
 10
8.518690
 20
166.050144
 30
0.0
 10
11.480783
 20
166.050144
 30
0.0
  0
SPLINE
  5
165
100
AcDbEntity
  8
Layer_1
 62
7
100
AcDbSpline
 70
8
 71
3
 72
8
 73
4
 74
0
 40
0
 40
0
 40
0
 40
0
 40
1
 40
1
 40
1
 40
1
 10
8.518690
 20
160.950712
 30
0.0
 10
7.151070
 20
160.950712
 30
0.0
 10
6.050107
 20
162.087828
 30
0.0
 10
6.050107
 20
163.500428
 30
0.0
  0
SPLINE
  5
166
100
AcDbEntity
  8
Layer_1
 62
7
100
AcDbSpline
 70
8
 71
3
 72
8
 73
4
 74
0
 40
0
 40
0
 40
0
 40
0
 40
1
 40
1
 40
1
 40
1
 10
6.050107
 20
163.500428
 30
0.0
 10
6.050107
 20
164.913028
 30
0.0
 10
7.151070
 20
166.050144
 30
0.0
 10
8.518690
 20
166.050144
 30
0.0
  0
LWPOLYLINE
  5
167
100
AcDbEntity
  8
Layer_1
 62
7
100
AcDbPolyline
 90
2
 70
0
 10
11.480783
 20
160.950712
 30
0.0
 10
8.518690
 20
160.950712
 30
0.0
  0
LWPOLYLINE
  5
168
100
AcDbEntity
  8
Layer_1
 62
7
100
AcDbPolyline
 90
1
 70
1
 10
8.518690
 20
166.050144
 30
0.0
  0
SPLINE
  5
169
100
AcDbEntity
  8
Layer_1
 62
7
100
AcDbSpline
 70
8
 71
3
 72
8
 73
4
 74
0
 40
0
 40
0
 40
0
 40
0
 40
1
 40
1
 40
1
 40
1
 10
291.481270
 20
166.050144
 30
0.0
 10
292.848901
 20
166.050144
 30
0.0
 10
293.949859
 20
164.913028
 30
0.0
 10
293.949859
 20
163.500428
 30
0.0
  0
SPLINE
  5
16a
100
AcDbEntity
  8
Layer_1
 62
7
100
AcDbSpline
 70
8
 71
3
 72
8
 73
4
 74
0
 40
0
 40
0
 40
0
 40
0
 40
1
 40
1
 40
1
 40
1
 10
293.949859
 20
163.500428
 30
0.0
 10
293.949859
 20
162.087828
 30
0.0
 10
292.848901
 20
160.950712
 30
0.0
 10
291.481270
 20
160.950712
 30
0.0
  0
LWPOLYLINE
  5
16b
100
AcDbEntity
  8
Layer_1
 62
7
100
AcDbPolyline
 90
2
 70
0
 10
288.518651
 20
166.050144
 30
0.0
 10
291.481270
 20
166.050144
 30
0.0
  0
SPLINE
  5
16c
100
AcDbEntity
  8
Layer_1
 62
7
100
AcDbSpline
 70
8
 71
3
 72
8
 73
4
 74
0
 40
0
 40
0
 40
0
 40
0
 40
1
 40
1
 40
1
 40
1
 10
288.518651
 20
160.950712
 30
0.0
 10
287.151046
 20
160.950712
 30
0.0
 10
286.050088
 20
162.087828
 30
0.0
 10
286.050088
 20
163.500428
 30
0.0
  0
SPLINE
  5
16d
100
AcDbEntity
  8
Layer_1
 62
7
100
AcDbSpline
 70
8
 71
3
 72
8
 73
4
 74
0
 40
0
 40
0
 40
0
 40
0
 40
1
 40
1
 40
1
 40
1
 10
286.050088
 20
163.500428
 30
0.0
 10
286.050088
 20
164.913028
 30
0.0
 10
287.151046
 20
166.050144
 30
0.0
 10
288.518651
 20
166.050144
 30
0.0
  0
LWPOLYLINE
  5
16e
100
AcDbEntity
  8
Layer_1
 62
7
100
AcDbPolyline
 90
2
 70
0
 10
291.481270
 20
160.950712
 30
0.0
 10
288.518651
 20
160.950712
 30
0.0
  0
LWPOLYLINE
  5
16f
100
AcDbEntity
  8
Layer_1
 62
7
100
AcDbPolyline
 90
1
 70
1
 10
288.518651
 20
166.050144
 30
0.0
  0
SPLINE
  5
170
100
AcDbEntity
  8
Layer_1
 62
7
100
AcDbSpline
 70
8
 71
3
 72
8
 73
4
 74
0
 40
0
 40
0
 40
0
 40
0
 40
1
 40
1
 40
1
 40
1
 10
11.480783
 20
112.050337
 30
0.0
 10
12.848403
 20
112.050337
 30
0.0
 10
13.949883
 20
110.913221
 30
0.0
 10
13.949883
 20
109.500622
 30
0.0
  0
SPLINE
  5
171
100
AcDbEntity
  8
Layer_1
 62
7
100
AcDbSpline
 70
8
 71
3
 72
8
 73
4
 74
0
 40
0
 40
0
 40
0
 40
0
 40
1
 40
1
 40
1
 40
1
 10
13.949883
 20
109.500622
 30
0.0
 10
13.949883
 20
108.088022
 30
0.0
 10
12.848403
 20
106.950906
 30
0.0
 10
11.480783
 20
106.950906
 30
0.0
  0
LWPOLYLINE
  5
172
100
AcDbEntity
  8
Layer_1
 62
7
100
AcDbPolyline
 90
2
 70
0
 10
8.518690
 20
112.050337
 30
0.0
 10
11.480783
 20
112.050337
 30
0.0
  0
SPLINE
  5
173
100
AcDbEntity
  8
Layer_1
 62
7
100
AcDbSpline
 70
8
 71
3
 72
8
 73
4
 74
0
 40
0
 40
0
 40
0
 40
0
 40
1
 40
1
 40
1
 40
1
 10
8.518690
 20
106.950906
 30
0.0
 10
7.151070
 20
106.950906
 30
0.0
 10
6.050107
 20
108.088022
 30
0.0
 10
6.050107
 20
109.500622
 30
0.0
  0
SPLINE
  5
174
100
AcDbEntity
  8
Layer_1
 62
7
100
AcDbSpline
 70
8
 71
3
 72
8
 73
4
 74
0
 40
0
 40
0
 40
0
 40
0
 40
1
 40
1
 40
1
 40
1
 10
6.050107
 20
109.500622
 30
0.0
 10
6.050107
 20
110.913221
 30
0.0
 10
7.151070
 20
112.050337
 30
0.0
 10
8.518690
 20
112.050337
 30
0.0
  0
LWPOLYLINE
  5
175
100
AcDbEntity
  8
Layer_1
 62
7
100
AcDbPolyline
 90
2
 70
0
 10
11.480783
 20
106.950906
 30
0.0
 10
8.518690
 20
106.950906
 30
0.0
  0
LWPOLYLINE
  5
176
100
AcDbEntity
  8
Layer_1
 62
7
100
AcDbPolyline
 90
1
 70
1
 10
8.518690
 20
112.050337
 30
0.0
  0
SPLINE
  5
177
100
AcDbEntity
  8
Layer_1
 62
7
100
AcDbSpline
 70
8
 71
3
 72
8
 73
4
 74
0
 40
0
 40
0
 40
0
 40
0
 40
1
 40
1
 40
1
 40
1
 10
291.481270
 20
112.050337
 30
0.0
 10
292.848901
 20
112.050337
 30
0.0
 10
293.949859
 20
110.913221
 30
0.0
 10
293.949859
 20
109.500622
 30
0.0
  0
SPLINE
  5
178
100
AcDbEntity
  8
Layer_1
 62
7
100
AcDbSpline
 70
8
 71
3
 72
8
 73
4
 74
0
 40
0
 40
0
 40
0
 40
0
 40
1
 40
1
 40
1
 40
1
 10
293.949859
 20
109.500622
 30
0.0
 10
293.949859
 20
108.088022
 30
0.0
 10
292.848901
 20
106.950906
 30
0.0
 10
291.481270
 20
106.950906
 30
0.0
  0
LWPOLYLINE
  5
179
100
AcDbEntity
  8
Layer_1
 62
7
100
AcDbPolyline
 90
2
 70
0
 10
288.518651
 20
112.050337
 30
0.0
 10
291.481270
 20
112.050337
 30
0.0
  0
SPLINE
  5
17a
100
AcDbEntity
  8
Layer_1
 62
7
100
AcDbSpline
 70
8
 71
3
 72
8
 73
4
 74
0
 40
0
 40
0
 40
0
 40
0
 40
1
 40
1
 40
1
 40
1
 10
288.518651
 20
106.950906
 30
0.0
 10
287.151046
 20
106.950906
 30
0.0
 10
286.050088
 20
108.088022
 30
0.0
 10
286.050088
 20
109.500622
 30
0.0
  0
SPLINE
  5
17b
100
AcDbEntity
  8
Layer_1
 62
7
100
AcDbSpline
 70
8
 71
3
 72
8
 73
4
 74
0
 40
0
 40
0
 40
0
 40
0
 40
1
 40
1
 40
1
 40
1
 10
286.050088
 20
109.500622
 30
0.0
 10
286.050088
 20
110.913221
 30
0.0
 10
287.151046
 20
112.050337
 30
0.0
 10
288.518651
 20
112.050337
 30
0.0
  0
LWPOLYLINE
  5
17c
100
AcDbEntity
  8
Layer_1
 62
7
100
AcDbPolyline
 90
2
 70
0
 10
291.481270
 20
106.950906
 30
0.0
 10
288.518651
 20
106.950906
 30
0.0
  0
LWPOLYLINE
  5
17d
100
AcDbEntity
  8
Layer_1
 62
7
100
AcDbPolyline
 90
1
 70
1
 10
288.518651
 20
112.050337
 30
0.0
  0
SPLINE
  5
17e
100
AcDbEntity
  8
Layer_1
 62
7
100
AcDbSpline
 70
8
 71
3
 72
8
 73
4
 74
0
 40
0
 40
0
 40
0
 40
0
 40
1
 40
1
 40
1
 40
1
 10
11.480783
 20
56.050138
 30
0.0
 10
12.848403
 20
56.050138
 30
0.0
 10
13.949883
 20
54.913022
 30
0.0
 10
13.949883
 20
53.500422
 30
0.0
  0
SPLINE
  5
17f
100
AcDbEntity
  8
Layer_1
 62
7
100
AcDbSpline
 70
8
 71
3
 72
8
 73
4
 74
0
 40
0
 40
0
 40
0
 40
0
 40
1
 40
1
 40
1
 40
1
 10
13.949883
 20
53.500422
 30
0.0
 10
13.949883
 20
52.087822
 30
0.0
 10
12.848403
 20
50.950707
 30
0.0
 10
11.480783
 20
50.950707
 30
0.0
  0
LWPOLYLINE
  5
180
100
AcDbEntity
  8
Layer_1
 62
7
100
AcDbPolyline
 90
2
 70
0
 10
8.518690
 20
56.050138
 30
0.0
 10
11.480783
 20
56.050138
 30
0.0
  0
SPLINE
  5
181
100
AcDbEntity
  8
Layer_1
 62
7
100
AcDbSpline
 70
8
 71
3
 72
8
 73
4
 74
0
 40
0
 40
0
 40
0
 40
0
 40
1
 40
1
 40
1
 40
1
 10
8.518690
 20
50.950707
 30
0.0
 10
7.151070
 20
50.950707
 30
0.0
 10
6.050107
 20
52.087822
 30
0.0
 10
6.050107
 20
53.500422
 30
0.0
  0
SPLINE
  5
182
100
AcDbEntity
  8
Layer_1
 62
7
100
AcDbSpline
 70
8
 71
3
 72
8
 73
4
 74
0
 40
0
 40
0
 40
0
 40
0
 40
1
 40
1
 40
1
 40
1
 10
6.050107
 20
53.500422
 30
0.0
 10
6.050107
 20
54.913022
 30
0.0
 10
7.151070
 20
56.050135
 30
0.0
 10
8.518690
 20
56.050138
 30
0.0
  0
LWPOLYLINE
  5
183
100
AcDbEntity
  8
Layer_1
 62
7
100
AcDbPolyline
 90
2
 70
0
 10
11.480783
 20
50.950707
 30
0.0
 10
8.518690
 20
50.950707
 30
0.0
  0
LWPOLYLINE
  5
184
100
AcDbEntity
  8
Layer_1
 62
7
100
AcDbPolyline
 90
1
 70
1
 10
8.518690
 20
56.050138
 30
0.0
  0
SPLINE
  5
185
100
AcDbEntity
  8
Layer_1
 62
7
100
AcDbSpline
 70
8
 71
3
 72
8
 73
4
 74
0
 40
0
 40
0
 40
0
 40
0
 40
1
 40
1
 40
1
 40
1
 10
291.481270
 20
56.050138
 30
0.0
 10
292.848901
 20
56.050138
 30
0.0
 10
293.949859
 20
54.913022
 30
0.0
 10
293.949859
 20
53.500422
 30
0.0
  0
SPLINE
  5
186
100
AcDbEntity
  8
Layer_1
 62
7
100
AcDbSpline
 70
8
 71
3
 72
8
 73
4
 74
0
 40
0
 40
0
 40
0
 40
0
 40
1
 40
1
 40
1
 40
1
 10
293.949859
 20
53.500422
 30
0.0
 10
293.949859
 20
52.087822
 30
0.0
 10
292.848901
 20
50.950707
 30
0.0
 10
291.481270
 20
50.950707
 30
0.0
  0
LWPOLYLINE
  5
187
100
AcDbEntity
  8
Layer_1
 62
7
100
AcDbPolyline
 90
2
 70
0
 10
288.518651
 20
56.050138
 30
0.0
 10
291.481270
 20
56.050138
 30
0.0
  0
SPLINE
  5
188
100
AcDbEntity
  8
Layer_1
 62
7
100
AcDbSpline
 70
8
 71
3
 72
8
 73
4
 74
0
 40
0
 40
0
 40
0
 40
0
 40
1
 40
1
 40
1
 40
1
 10
288.518651
 20
50.950707
 30
0.0
 10
287.151046
 20
50.950707
 30
0.0
 10
286.050088
 20
52.087822
 30
0.0
 10
286.050088
 20
53.500422
 30
0.0
  0
SPLINE
  5
189
100
AcDbEntity
  8
Layer_1
 62
7
100
AcDbSpline
 70
8
 71
3
 72
8
 73
4
 74
0
 40
0
 40
0
 40
0
 40
0
 40
1
 40
1
 40
1
 40
1
 10
286.050088
 20
53.500422
 30
0.0
 10
286.050088
 20
54.913022
 30
0.0
 10
287.151046
 20
56.050135
 30
0.0
 10
288.518651
 20
56.050138
 30
0.0
  0
LWPOLYLINE
  5
18a
100
AcDbEntity
  8
Layer_1
 62
7
100
AcDbPolyline
 90
2
 70
0
 10
291.481270
 20
50.950707
 30
0.0
 10
288.518651
 20
50.950707
 30
0.0
  0
SPLINE
  5
18b
100
AcDbEntity
  8
Layer_1
 62
7
100
AcDbSpline
 70
8
 71
3
 72
8
 73
4
 74
0
 40
0
 40
0
 40
0
 40
0
 40
1
 40
1
 40
1
 40
1
 10
53.599660
 20
14.050115
 30
0.0
 10
55.012260
 20
14.050115
 30
0.0
 10
56.149892
 20
12.949152
 30
0.0
 10
56.149892
 20
11.581531
 30
0.0
  0
LWPOLYLINE
  5
18c
100
AcDbEntity
  8
Layer_1
 62
7
100
AcDbPolyline
 90
1
 70
1
 10
288.518651
 20
56.050138
 30
0.0
  0
SPLINE
  5
18d
100
AcDbEntity
  8
Layer_1
 62
7
100
AcDbSpline
 70
8
 71
3
 72
8
 73
4
 74
0
 40
0
 40
0
 40
0
 40
0
 40
1
 40
1
 40
1
 40
1
 10
56.149892
 20
8.619438
 30
0.0
 10
56.149892
 20
7.251818
 30
0.0
 10
55.012260
 20
6.150855
 30
0.0
 10
53.599660
 20
6.150855
 30
0.0
  0
SPLINE
  5
18e
100
AcDbEntity
  8
Layer_1
 62
7
100
AcDbSpline
 70
8
 71
3
 72
8
 73
4
 74
0
 40
0
 40
0
 40
0
 40
0
 40
1
 40
1
 40
1
 40
1
 10
53.599660
 20
6.150855
 30
0.0
 10
52.187061
 20
6.150855
 30
0.0
 10
51.049945
 20
7.251818
 30
0.0
 10
51.049945
 20
8.619438
 30
0.0
  0
LWPOLYLINE
  5
18f
100
AcDbEntity
  8
Layer_1
 62
7
100
AcDbPolyline
 90
2
 70
0
 10
56.149892
 20
11.581531
 30
0.0
 10
56.149892
 20
8.619438
 30
0.0
  0
SPLINE
  5
190
100
AcDbEntity
  8
Layer_1
 62
7
100
AcDbSpline
 70
8
 71
3
 72
8
 73
4
 74
0
 40
0
 40
0
 40
0
 40
0
 40
1
 40
1
 40
1
 40
1
 10
51.049945
 20
11.581531
 30
0.0
 10
51.049945
 20
12.949152
 30
0.0
 10
52.187061
 20
14.050115
 30
0.0
 10
53.599660
 20
14.050115
 30
0.0
  0
LWPOLYLINE
  5
191
100
AcDbEntity
  8
Layer_1
 62
7
100
AcDbPolyline
 90
2
 70
0
 10
51.049945
 20
8.619438
 30
0.0
 10
51.049945
 20
11.581531
 30
0.0
  0
SPLINE
  5
192
100
AcDbEntity
  8
Layer_1
 62
7
100
AcDbSpline
 70
8
 71
3
 72
8
 73
4
 74
0
 40
0
 40
0
 40
0
 40
0
 40
1
 40
1
 40
1
 40
1
 10
117.799880
 20
14.050115
 30
0.0
 10
119.212479
 20
14.050115
 30
0.0
 10
120.349592
 20
12.949152
 30
0.0
 10
120.349592
 20
11.581531
 30
0.0
  0
LWPOLYLINE
  5
193
100
AcDbEntity
  8
Layer_1
 62
7
100
AcDbPolyline
 90
1
 70
1
 10
53.599660
 20
14.050115
 30
0.0
  0
SPLINE
  5
194
100
AcDbEntity
  8
Layer_1
 62
7
100
AcDbSpline
 70
8
 71
3
 72
8
 73
4
 74
0
 40
0
 40
0
 40
0
 40
0
 40
1
 40
1
 40
1
 40
1
 10
120.349592
 20
8.619438
 30
0.0
 10
120.349592
 20
7.251818
 30
0.0
 10
119.212479
 20
6.150855
 30
0.0
 10
117.799880
 20
6.150855
 30
0.0
  0
SPLINE
  5
195
100
AcDbEntity
  8
Layer_1
 62
7
100
AcDbSpline
 70
8
 71
3
 72
8
 73
4
 74
0
 40
0
 40
0
 40
0
 40
0
 40
1
 40
1
 40
1
 40
1
 10
117.799880
 20
6.150855
 30
0.0
 10
116.387277
 20
6.150855
 30
0.0
 10
115.250164
 20
7.251818
 30
0.0
 10
115.250164
 20
8.619438
 30
0.0
  0
LWPOLYLINE
  5
196
100
AcDbEntity
  8
Layer_1
 62
7
100
AcDbPolyline
 90
2
 70
0
 10
120.349592
 20
11.581531
 30
0.0
 10
120.349592
 20
8.619438
 30
0.0
  0
SPLINE
  5
197
100
AcDbEntity
  8
Layer_1
 62
7
100
AcDbSpline
 70
8
 71
3
 72
8
 73
4
 74
0
 40
0
 40
0
 40
0
 40
0
 40
1
 40
1
 40
1
 40
1
 10
115.250164
 20
11.581531
 30
0.0
 10
115.250164
 20
12.949152
 30
0.0
 10
116.387277
 20
14.050115
 30
0.0
 10
117.799880
 20
14.050115
 30
0.0
  0
LWPOLYLINE
  5
198
100
AcDbEntity
  8
Layer_1
 62
7
100
AcDbPolyline
 90
2
 70
0
 10
115.250164
 20
8.619438
 30
0.0
 10
115.250164
 20
11.581531
 30
0.0
  0
SPLINE
  5
199
100
AcDbEntity
  8
Layer_1
 62
7
100
AcDbSpline
 70
8
 71
3
 72
8
 73
4
 74
0
 40
0
 40
0
 40
0
 40
0
 40
1
 40
1
 40
1
 40
1
 10
181.999580
 20
14.050115
 30
0.0
 10
183.412180
 20
14.050115
 30
0.0
 10
184.549812
 20
12.949152
 30
0.0
 10
184.549812
 20
11.581531
 30
0.0
  0
LWPOLYLINE
  5
19a
100
AcDbEntity
  8
Layer_1
 62
7
100
AcDbPolyline
 90
1
 70
1
 10
117.799880
 20
14.050115
 30
0.0
  0
SPLINE
  5
19b
100
AcDbEntity
  8
Layer_1
 62
7
100
AcDbSpline
 70
8
 71
3
 72
8
 73
4
 74
0
 40
0
 40
0
 40
0
 40
0
 40
1
 40
1
 40
1
 40
1
 10
184.549812
 20
8.619438
 30
0.0
 10
184.549812
 20
7.251818
 30
0.0
 10
183.412180
 20
6.150855
 30
0.0
 10
181.999580
 20
6.150855
 30
0.0
  0
SPLINE
  5
19c
100
AcDbEntity
  8
Layer_1
 62
7
100
AcDbSpline
 70
8
 71
3
 72
8
 73
4
 74
0
 40
0
 40
0
 40
0
 40
0
 40
1
 40
1
 40
1
 40
1
 10
181.999580
 20
6.150855
 30
0.0
 10
180.586980
 20
6.150855
 30
0.0
 10
179.449865
 20
7.251818
 30
0.0
 10
179.449865
 20
8.619438
 30
0.0
  0
LWPOLYLINE
  5
19d
100
AcDbEntity
  8
Layer_1
 62
7
100
AcDbPolyline
 90
2
 70
0
 10
184.549812
 20
11.581531
 30
0.0
 10
184.549812
 20
8.619438
 30
0.0
  0
SPLINE
  5
19e
100
AcDbEntity
  8
Layer_1
 62
7
100
AcDbSpline
 70
8
 71
3
 72
8
 73
4
 74
0
 40
0
 40
0
 40
0
 40
0
 40
1
 40
1
 40
1
 40
1
 10
179.449865
 20
11.581531
 30
0.0
 10
179.449865
 20
12.949152
 30
0.0
 10
180.586980
 20
14.050115
 30
0.0
 10
181.999580
 20
14.050115
 30
0.0
  0
LWPOLYLINE
  5
19f
100
AcDbEntity
  8
Layer_1
 62
7
100
AcDbPolyline
 90
2
 70
0
 10
179.449865
 20
8.619438
 30
0.0
 10
179.449865
 20
11.581531
 30
0.0
  0
SPLINE
  5
1a0
100
AcDbEntity
  8
Layer_1
 62
7
100
AcDbSpline
 70
8
 71
3
 72
8
 73
4
 74
0
 40
0
 40
0
 40
0
 40
0
 40
1
 40
1
 40
1
 40
1
 10
246.399785
 20
14.050115
 30
0.0
 10
247.812384
 20
14.050115
 30
0.0
 10
248.949500
 20
12.949152
 30
0.0
 10
248.949500
 20
11.581531
 30
0.0
  0
LWPOLYLINE
  5
1a1
100
AcDbEntity
  8
Layer_1
 62
7
100
AcDbPolyline
 90
1
 70
1
 10
181.999580
 20
14.050115
 30
0.0
  0
SPLINE
  5
1a2
100
AcDbEntity
  8
Layer_1
 62
7
100
AcDbSpline
 70
8
 71
3
 72
8
 73
4
 74
0
 40
0
 40
0
 40
0
 40
0
 40
1
 40
1
 40
1
 40
1
 10
248.949500
 20
8.619438
 30
0.0
 10
248.949500
 20
7.251818
 30
0.0
 10
247.812384
 20
6.150855
 30
0.0
 10
246.399785
 20
6.150855
 30
0.0
  0
SPLINE
  5
1a3
100
AcDbEntity
  8
Layer_1
 62
7
100
AcDbSpline
 70
8
 71
3
 72
8
 73
4
 74
0
 40
0
 40
0
 40
0
 40
0
 40
1
 40
1
 40
1
 40
1
 10
246.399785
 20
6.150855
 30
0.0
 10
244.987185
 20
6.150855
 30
0.0
 10
243.850069
 20
7.251818
 30
0.0
 10
243.850069
 20
8.619438
 30
0.0
  0
LWPOLYLINE
  5
1a4
100
AcDbEntity
  8
Layer_1
 62
7
100
AcDbPolyline
 90
2
 70
0
 10
248.949500
 20
11.581531
 30
0.0
 10
248.949500
 20
8.619438
 30
0.0
  0
SPLINE
  5
1a5
100
AcDbEntity
  8
Layer_1
 62
7
100
AcDbSpline
 70
8
 71
3
 72
8
 73
4
 74
0
 40
0
 40
0
 40
0
 40
0
 40
1
 40
1
 40
1
 40
1
 10
243.850069
 20
11.581531
 30
0.0
 10
243.850069
 20
12.949152
 30
0.0
 10
244.987185
 20
14.050115
 30
0.0
 10
246.399785
 20
14.050115
 30
0.0
  0
LWPOLYLINE
  5
1a6
100
AcDbEntity
  8
Layer_1
 62
7
100
AcDbPolyline
 90
2
 70
0
 10
243.850069
 20
8.619438
 30
0.0
 10
243.850069
 20
11.581531
 30
0.0
  0
LWPOLYLINE
  5
1a7
100
AcDbEntity
  8
Layer_1
 62
7
100
AcDbPolyline
 90
1
 70
1
 10
246.399785
 20
14.050115
 30
0.0
  0
ENDSEC
  0
SECTION
  2
OBJECTS
  0
DICTIONARY
  5
C
330
0
100
AcDbDictionary
  3
ACAD_GROUP
350
D
  3
ACAD_MLINESTYLE
350
17
  0
DICTIONARY
  5
D
330
C
100
AcDbDictionary
  0
DICTIONARY
  5
1A
330
C
100
AcDbDictionary
  0
DICTIONARY
  5
17
330
C
100
AcDbDictionary
  3
STANDARD
350
18
  0
DICTIONARY
  5
19
330
C
100
AcDbDictionary
  0
ENDSEC
  0
EOF
