  0
SECTION
  2
HEADER
  9
$ACADVER
  1
AC1014
  9
$HANDSEED
  5
FFFF
  9
$MEASUREMENT
 70
     1
  0
ENDSEC
  0
SECTION
  2
TABLES
  0
TABLE
  2
VPORT
  5
8
330
0
100
AcDbSymbolTable
 70
     4
  0
VPORT
  5
2E
330
8
100
AcDbSymbolTableRecord
100
AcDbViewportTableRecord
  2
*ACTIVE
 70
     0
 10
0.0
 20
0.0
 11
1.0
 21
1.0
 12
210.0
 22
148.5
 13
0.0
 23
0.0
 14
10.0
 24
10.0
 15
10.0
 25
10.0
 16
0.0
 26
0.0
 36
1.0
 17
0.0
 27
0.0
 37
0.0
 40
341.0
 41
1.24
 42
50.0
 43
0.0
 44
0.0
 50
0.0
 51
0.0
 71
     0
 72
   100
 73
     1
 74
     3
 75
     0
 76
     0
 77
     0
 78
     0
  0
ENDTAB
  0
TABLE
  2
LTYPE
  5
5
330
0
100
AcDbSymbolTable
 70
     1
  0
LTYPE
  5
14
330
5
100
AcDbSymbolTableRecord
100
AcDbLinetypeTableRecord
  2
BYBLOCK
 70
     0
  3

 72
    65
 73
     0
 40
0.0
  0
LTYPE
  5
15
330
5
100
AcDbSymbolTableRecord
100
AcDbLinetypeTableRecord
  2
BYLAYER
 70
     0
  3

 72
    65
 73
     0
 40
0.0
  0
LTYPE
  5
16
330
5
100
AcDbSymbolTableRecord
100
AcDbLinetypeTableRecord
  2
CONTINUOUS
 70
     0
  3
Solid line
 72
    65
 73
     0
 40
0.0
  0
ENDTAB
  0
TABLE
  2
LAYER
  5
2
100
AcDbSymbolTable
 70
2
  0
LAYER
  5
50
100
AcDbSymbolTableRecord
100
AcDbLayerTableRecord
  2
0
 70
0
  6
CONTINUOUS
  0
LAYER
  5
51
100
AcDbSymbolTableRecord
100
AcDbLayerTableRecord
  2
Layer_1
 70
0
  6
CONTINUOUS
  0
ENDTAB
  0
TABLE
  2
STYLE
  5
3
330
0
100
AcDbSymbolTable
 70
     1
  0
STYLE
  5
11
330
3
100
AcDbSymbolTableRecord
100
AcDbTextStyleTableRecord
  2
STANDARD
 70
     0
 40
0.0
 41
1.0
 50
0.0
 71
     0
 42
2.5
  3
txt
  4

  0
ENDTAB
  0
TABLE
  2
VIEW
  5
6
330
0
100
AcDbSymbolTable
 70
     0
  0
ENDTAB
  0
TABLE
  2
UCS
  5
7
330
0
100
AcDbSymbolTable
 70
     0
  0
ENDTAB
  0
TABLE
  2
APPID
  5
9
330
0
100
AcDbSymbolTable
 70
     2
  0
APPID
  5
12
330
9
100
AcDbSymbolTableRecord
100
AcDbRegAppTableRecord
  2
ACAD
 70
     0
  0
ENDTAB
  0
TABLE
  2
DIMSTYLE
  5
A
330
0
100
AcDbSymbolTable
 70
     1
  0
DIMSTYLE
105
27
330
A
100
AcDbSymbolTableRecord
100
AcDbDimStyleTableRecord
  2
ISO-25
 70
     0
  3

  4

  5

  6

  7

 40
1.0
 41
2.5
 42
0.625
 43
3.75
 44
1.25
 45
0.0
 46
0.0
 47
0.0
 48
0.0
140
2.5
141
2.5
142
0.0
143
0.03937007874016
144
1.0
145
0.0
146
1.0
147
0.625
 71
     0
 72
     0
 73
     0
 74
     0
 75
     0
 76
     0
 77
     1
 78
     8
170
     0
171
     3
172
     1
173
     0
174
     0
175
     0
176
     0
177
     0
178
     0
270
     2
271
     2
272
     2
273
     2
274
     3
340
11
275
     0
280
     0
281
     0
282
     0
283
     0
284
     8
285
     0
286
     0
287
     3
288
     0
  0
ENDTAB
  0
TABLE
  2
BLOCK_RECORD
  5
1
330
0
100
AcDbSymbolTable
 70
     1
  0
BLOCK_RECORD
  5
1F
330
1
100
AcDbSymbolTableRecord
100
AcDbBlockTableRecord
  2
*MODEL_SPACE
  0
BLOCK_RECORD
  5
1B
330
1
100
AcDbSymbolTableRecord
100
AcDbBlockTableRecord
  2
*PAPER_SPACE
  0
ENDTAB
  0
ENDSEC
  0
SECTION
  2
BLOCKS
  0
BLOCK
  5
20
330
1F
100
AcDbEntity
  8
0
100
AcDbBlockBegin
  2
*MODEL_SPACE
 70
     0
 10
0.0
 20
0.0
 30
0.0
  3
*MODEL_SPACE
  1

  0
ENDBLK
  5
21
330
1F
100
AcDbEntity
  8
0
100
AcDbBlockEnd
  0
BLOCK
  5
1C
330
1B
100
AcDbEntity
 67
     1
  8
0
100
AcDbBlockBegin
  2
*PAPER_SPACE
  1

  0
ENDBLK
  5
1D
330
1B
100
AcDbEntity
 67
     1
  8
0
100
AcDbBlockEnd
  0
ENDSEC
  0
SECTION
  2
ENTITIES
  0
SPLINE
  5
100
100
AcDbEntity
  8
Layer_1
 62
7
100
AcDbSpline
 70
8
 71
3
 72
8
 73
4
 74
0
 40
0
 40
0
 40
0
 40
0
 40
1
 40
1
 40
1
 40
1
 10
2.695729
 20
229.950064
 30
0.0
 10
1.994011
 20
229.950064
 30
0.0
 10
1.321033
 20
229.671307
 30
0.0
 10
0.824843
 20
229.175117
 30
0.0
  0
SPLINE
  5
101
100
AcDbEntity
  8
Layer_1
 62
7
100
AcDbSpline
 70
8
 71
3
 72
8
 73
4
 74
0
 40
0
 40
0
 40
0
 40
0
 40
1
 40
1
 40
1
 40
1
 10
0.824843
 20
229.175117
 30
0.0
 10
0.328653
 20
228.678927
 30
0.0
 10
0.049896
 20
228.005949
 30
0.0
 10
0.049896
 20
227.304231
 30
0.0
  0
SPLINE
  5
102
100
AcDbEntity
  8
Layer_1
 62
7
100
AcDbSpline
 70
8
 71
3
 72
8
 73
4
 74
0
 40
0
 40
0
 40
0
 40
0
 40
1
 40
1
 40
1
 40
1
 10
0.049896
 20
43.492737
 30
0.0
 10
0.049896
 20
42.791018
 30
0.0
 10
0.328653
 20
42.118040
 30
0.0
 10
0.824843
 20
41.621850
 30
0.0
  0
SPLINE
  5
103
100
AcDbEntity
  8
Layer_1
 62
7
100
AcDbSpline
 70
8
 71
3
 72
8
 73
4
 74
0
 40
0
 40
0
 40
0
 40
0
 40
1
 40
1
 40
1
 40
1
 10
0.824843
 20
41.621850
 30
0.0
 10
1.321032
 20
41.125660
 30
0.0
 10
1.994011
 20
40.846904
 30
0.0
 10
2.695729
 20
40.846904
 30
0.0
  0
LWPOLYLINE
  5
104
100
AcDbEntity
  8
Layer_1
 62
7
100
AcDbPolyline
 90
2
 70
0
 10
0.049896
 20
227.304231
 30
0.0
 10
0.049896
 20
43.492737
 30
0.0
  0
SPLINE
  5
105
100
AcDbEntity
  8
Layer_1
 62
7
100
AcDbSpline
 70
8
 71
3
 72
8
 73
4
 74
0
 40
0
 40
0
 40
0
 40
0
 40
1
 40
1
 40
1
 40
1
 10
17.802298
 20
40.846904
 30
0.0
 10
18.504017
 20
40.846904
 30
0.0
 10
19.176995
 20
40.568147
 30
0.0
 10
19.673185
 20
40.071957
 30
0.0
  0
SPLINE
  5
106
100
AcDbEntity
  8
Layer_1
 62
7
100
AcDbSpline
 70
8
 71
3
 72
8
 73
4
 74
0
 40
0
 40
0
 40
0
 40
0
 40
1
 40
1
 40
1
 40
1
 10
19.673185
 20
40.071957
 30
0.0
 10
20.169375
 20
39.575768
 30
0.0
 10
20.448131
 20
38.902789
 30
0.0
 10
20.448131
 20
38.201071
 30
0.0
  0
LWPOLYLINE
  5
107
100
AcDbEntity
  8
Layer_1
 62
7
100
AcDbPolyline
 90
2
 70
0
 10
2.695729
 20
40.846904
 30
0.0
 10
17.802298
 20
40.846904
 30
0.0
  0
SPLINE
  5
108
100
AcDbEntity
  8
Layer_1
 62
7
100
AcDbSpline
 70
8
 71
3
 72
8
 73
4
 74
0
 40
0
 40
0
 40
0
 40
0
 40
1
 40
1
 40
1
 40
1
 10
20.448131
 20
23.492928
 30
0.0
 10
20.448131
 20
22.791209
 30
0.0
 10
20.726888
 20
22.118231
 30
0.0
 10
21.223078
 20
21.622041
 30
0.0
  0
SPLINE
  5
109
100
AcDbEntity
  8
Layer_1
 62
7
100
AcDbSpline
 70
8
 71
3
 72
8
 73
4
 74
0
 40
0
 40
0
 40
0
 40
0
 40
1
 40
1
 40
1
 40
1
 10
21.223078
 20
21.622041
 30
0.0
 10
21.719268
 20
21.125851
 30
0.0
 10
22.392246
 20
20.847095
 30
0.0
 10
23.093964
 20
20.847095
 30
0.0
  0
LWPOLYLINE
  5
10a
100
AcDbEntity
  8
Layer_1
 62
7
100
AcDbPolyline
 90
2
 70
0
 10
20.448131
 20
38.201071
 30
0.0
 10
20.448131
 20
23.492928
 30
0.0
  0
SPLINE
  5
10b
100
AcDbEntity
  8
Layer_1
 62
7
100
AcDbSpline
 70
8
 71
3
 72
8
 73
4
 74
0
 40
0
 40
0
 40
0
 40
0
 40
1
 40
1
 40
1
 40
1
 10
37.802624
 20
20.847095
 30
0.0
 10
38.504343
 20
20.847095
 30
0.0
 10
39.177321
 20
20.568338
 30
0.0
 10
39.673511
 20
20.072148
 30
0.0
  0
SPLINE
  5
10c
100
AcDbEntity
  8
Layer_1
 62
7
100
AcDbSpline
 70
8
 71
3
 72
8
 73
4
 74
0
 40
0
 40
0
 40
0
 40
0
 40
1
 40
1
 40
1
 40
1
 10
39.673511
 20
20.072148
 30
0.0
 10
40.169701
 20
19.575959
 30
0.0
 10
40.448457
 20
18.902981
 30
0.0
 10
40.448457
 20
18.201262
 30
0.0
  0
LWPOLYLINE
  5
10d
100
AcDbEntity
  8
Layer_1
 62
7
100
AcDbPolyline
 90
2
 70
0
 10
23.093964
 20
20.847095
 30
0.0
 10
37.802624
 20
20.847095
 30
0.0
  0
SPLINE
  5
10e
100
AcDbEntity
  8
Layer_1
 62
7
100
AcDbSpline
 70
8
 71
3
 72
8
 73
4
 74
0
 40
0
 40
0
 40
0
 40
0
 40
1
 40
1
 40
1
 40
1
 10
40.448457
 20
2.695750
 30
0.0
 10
40.448457
 20
1.994031
 30
0.0
 10
40.727214
 20
1.321053
 30
0.0
 10
41.223404
 20
0.824863
 30
0.0
  0
SPLINE
  5
10f
100
AcDbEntity
  8
Layer_1
 62
7
100
AcDbSpline
 70
8
 71
3
 72
8
 73
4
 74
0
 40
0
 40
0
 40
0
 40
0
 40
1
 40
1
 40
1
 40
1
 10
41.223404
 20
0.824863
 30
0.0
 10
41.719594
 20
0.328673
 30
0.0
 10
42.392572
 20
0.049916
 30
0.0
 10
43.094290
 20
0.049917
 30
0.0
  0
LWPOLYLINE
  5
110
100
AcDbEntity
  8
Layer_1
 62
7
100
AcDbPolyline
 90
2
 70
0
 10
40.448457
 20
18.201262
 30
0.0
 10
40.448457
 20
2.695750
 30
0.0
  0
SPLINE
  5
111
100
AcDbEntity
  8
Layer_1
 62
7
100
AcDbSpline
 70
8
 71
3
 72
8
 73
4
 74
0
 40
0
 40
0
 40
0
 40
0
 40
1
 40
1
 40
1
 40
1
 10
256.007363
 20
0.049917
 30
0.0
 10
256.709081
 20
0.049916
 30
0.0
 10
257.382059
 20
0.328673
 30
0.0
 10
257.878249
 20
0.824863
 30
0.0
  0
SPLINE
  5
112
100
AcDbEntity
  8
Layer_1
 62
7
100
AcDbSpline
 70
8
 71
3
 72
8
 73
4
 74
0
 40
0
 40
0
 40
0
 40
0
 40
1
 40
1
 40
1
 40
1
 10
257.878249
 20
0.824863
 30
0.0
 10
258.374439
 20
1.321053
 30
0.0
 10
258.653196
 20
1.994031
 30
0.0
 10
258.653196
 20
2.695750
 30
0.0
  0
LWPOLYLINE
  5
113
100
AcDbEntity
  8
Layer_1
 62
7
100
AcDbPolyline
 90
2
 70
0
 10
43.094290
 20
0.049917
 30
0.0
 10
256.007363
 20
0.049917
 30
0.0
  0
SPLINE
  5
114
100
AcDbEntity
  8
Layer_1
 62
7
100
AcDbSpline
 70
8
 71
3
 72
8
 73
4
 74
0
 40
0
 40
0
 40
0
 40
0
 40
1
 40
1
 40
1
 40
1
 10
258.653196
 20
18.201262
 30
0.0
 10
258.653195
 20
18.902981
 30
0.0
 10
258.931952
 20
19.575959
 30
0.0
 10
259.428142
 20
20.072148
 30
0.0
  0
SPLINE
  5
115
100
AcDbEntity
  8
Layer_1
 62
7
100
AcDbSpline
 70
8
 71
3
 72
8
 73
4
 74
0
 40
0
 40
0
 40
0
 40
0
 40
1
 40
1
 40
1
 40
1
 10
259.428142
 20
20.072148
 30
0.0
 10
259.924332
 20
20.568338
 30
0.0
 10
260.597310
 20
20.847095
 30
0.0
 10
261.299029
 20
20.847095
 30
0.0
  0
LWPOLYLINE
  5
116
100
AcDbEntity
  8
Layer_1
 62
7
100
AcDbPolyline
 90
2
 70
0
 10
258.653196
 20
2.695750
 30
0.0
 10
258.653196
 20
18.201262
 30
0.0
  0
SPLINE
  5
117
100
AcDbEntity
  8
Layer_1
 62
7
100
AcDbSpline
 70
8
 71
3
 72
8
 73
4
 74
0
 40
0
 40
0
 40
0
 40
0
 40
1
 40
1
 40
1
 40
1
 10
276.007693
 20
20.847095
 30
0.0
 10
276.709411
 20
20.847095
 30
0.0
 10
277.382389
 20
21.125851
 30
0.0
 10
277.878579
 20
21.622041
 30
0.0
  0
SPLINE
  5
118
100
AcDbEntity
  8
Layer_1
 62
7
100
AcDbSpline
 70
8
 71
3
 72
8
 73
4
 74
0
 40
0
 40
0
 40
0
 40
0
 40
1
 40
1
 40
1
 40
1
 10
277.878579
 20
21.622041
 30
0.0
 10
278.374769
 20
22.118231
 30
0.0
 10
278.653526
 20
22.791209
 30
0.0
 10
278.653526
 20
23.492928
 30
0.0
  0
LWPOLYLINE
  5
119
100
AcDbEntity
  8
Layer_1
 62
7
100
AcDbPolyline
 90
2
 70
0
 10
261.299029
 20
20.847095
 30
0.0
 10
276.007693
 20
20.847095
 30
0.0
  0
SPLINE
  5
11a
100
AcDbEntity
  8
Layer_1
 62
7
100
AcDbSpline
 70
8
 71
3
 72
8
 73
4
 74
0
 40
0
 40
0
 40
0
 40
0
 40
1
 40
1
 40
1
 40
1
 10
278.653526
 20
38.201071
 30
0.0
 10
278.653526
 20
38.902789
 30
0.0
 10
278.932282
 20
39.575768
 30
0.0
 10
279.428472
 20
40.071957
 30
0.0
  0
SPLINE
  5
11b
100
AcDbEntity
  8
Layer_1
 62
7
100
AcDbSpline
 70
8
 71
3
 72
8
 73
4
 74
0
 40
0
 40
0
 40
0
 40
0
 40
1
 40
1
 40
1
 40
1
 10
279.428472
 20
40.071957
 30
0.0
 10
279.924662
 20
40.568147
 30
0.0
 10
280.597640
 20
40.846904
 30
0.0
 10
281.299359
 20
40.846904
 30
0.0
  0
LWPOLYLINE
  5
11c
100
AcDbEntity
  8
Layer_1
 62
7
100
AcDbPolyline
 90
2
 70
0
 10
278.653526
 20
23.492928
 30
0.0
 10
278.653526
 20
38.201071
 30
0.0
  0
SPLINE
  5
11d
100
AcDbEntity
  8
Layer_1
 62
7
100
AcDbSpline
 70
8
 71
3
 72
8
 73
4
 74
0
 40
0
 40
0
 40
0
 40
0
 40
1
 40
1
 40
1
 40
1
 10
296.304116
 20
40.846904
 30
0.0
 10
297.005834
 20
40.846904
 30
0.0
 10
297.678812
 20
41.125660
 30
0.0
 10
298.175002
 20
41.621850
 30
0.0
  0
SPLINE
  5
11e
100
AcDbEntity
  8
Layer_1
 62
7
100
AcDbSpline
 70
8
 71
3
 72
8
 73
4
 74
0
 40
0
 40
0
 40
0
 40
0
 40
1
 40
1
 40
1
 40
1
 10
298.175002
 20
41.621850
 30
0.0
 10
298.671192
 20
42.118040
 30
0.0
 10
298.949949
 20
42.791018
 30
0.0
 10
298.949948
 20
43.492737
 30
0.0
  0
LWPOLYLINE
  5
11f
100
AcDbEntity
  8
Layer_1
 62
7
100
AcDbPolyline
 90
2
 70
0
 10
281.299359
 20
40.846904
 30
0.0
 10
296.304116
 20
40.846904
 30
0.0
  0
SPLINE
  5
120
100
AcDbEntity
  8
Layer_1
 62
7
100
AcDbSpline
 70
8
 71
3
 72
8
 73
4
 74
0
 40
0
 40
0
 40
0
 40
0
 40
1
 40
1
 40
1
 40
1
 10
298.949948
 20
227.304231
 30
0.0
 10
298.949949
 20
228.005949
 30
0.0
 10
298.671192
 20
228.678928
 30
0.0
 10
298.175002
 20
229.175117
 30
0.0
  0
SPLINE
  5
121
100
AcDbEntity
  8
Layer_1
 62
7
100
AcDbSpline
 70
8
 71
3
 72
8
 73
4
 74
0
 40
0
 40
0
 40
0
 40
0
 40
1
 40
1
 40
1
 40
1
 10
298.175002
 20
229.175117
 30
0.0
 10
297.678812
 20
229.671307
 30
0.0
 10
297.005834
 20
229.950064
 30
0.0
 10
296.304116
 20
229.950064
 30
0.0
  0
LWPOLYLINE
  5
122
100
AcDbEntity
  8
Layer_1
 62
7
100
AcDbPolyline
 90
2
 70
0
 10
298.949948
 20
43.492737
 30
0.0
 10
298.949948
 20
227.304231
 30
0.0
  0
SPLINE
  5
123
100
AcDbEntity
  8
Layer_1
 62
7
100
AcDbSpline
 70
8
 71
3
 72
8
 73
4
 74
0
 40
0
 40
0
 40
0
 40
0
 40
1
 40
1
 40
1
 40
1
 10
282.107052
 20
229.950064
 30
0.0
 10
281.405334
 20
229.950064
 30
0.0
 10
280.732356
 20
229.671307
 30
0.0
 10
280.236166
 20
229.175117
 30
0.0
  0
SPLINE
  5
124
100
AcDbEntity
  8
Layer_1
 62
7
100
AcDbSpline
 70
8
 71
3
 72
8
 73
4
 74
0
 40
0
 40
0
 40
0
 40
0
 40
1
 40
1
 40
1
 40
1
 10
280.236166
 20
229.175117
 30
0.0
 10
279.739976
 20
228.678928
 30
0.0
 10
279.461219
 20
228.005949
 30
0.0
 10
279.461219
 20
227.304231
 30
0.0
  0
LWPOLYLINE
  5
125
100
AcDbEntity
  8
Layer_1
 62
7
100
AcDbPolyline
 90
2
 70
0
 10
296.304116
 20
229.950064
 30
0.0
 10
282.107052
 20
229.950064
 30
0.0
  0
SPLINE
  5
126
100
AcDbEntity
  8
Layer_1
 62
7
100
AcDbSpline
 70
8
 71
3
 72
8
 73
4
 74
0
 40
0
 40
0
 40
0
 40
0
 40
1
 40
1
 40
1
 40
1
 10
279.461219
 20
208.684698
 30
0.0
 10
279.461219
 20
207.982980
 30
0.0
 10
279.182463
 20
207.310002
 30
0.0
 10
278.686273
 20
206.813812
 30
0.0
  0
SPLINE
  5
127
100
AcDbEntity
  8
Layer_1
 62
7
100
AcDbSpline
 70
8
 71
3
 72
8
 73
4
 74
0
 40
0
 40
0
 40
0
 40
0
 40
1
 40
1
 40
1
 40
1
 10
278.686273
 20
206.813812
 30
0.0
 10
278.190083
 20
206.317622
 30
0.0
 10
277.517105
 20
206.038865
 30
0.0
 10
276.815386
 20
206.038865
 30
0.0
  0
LWPOLYLINE
  5
128
100
AcDbEntity
  8
Layer_1
 62
7
100
AcDbPolyline
 90
2
 70
0
 10
279.461219
 20
227.304231
 30
0.0
 10
279.461219
 20
208.684698
 30
0.0
  0
SPLINE
  5
129
100
AcDbEntity
  8
Layer_1
 62
7
100
AcDbSpline
 70
8
 71
3
 72
8
 73
4
 74
0
 40
0
 40
0
 40
0
 40
0
 40
1
 40
1
 40
1
 40
1
 10
262.184245
 20
206.038865
 30
0.0
 10
261.482526
 20
206.038865
 30
0.0
 10
260.809548
 20
206.317622
 30
0.0
 10
260.313358
 20
206.813812
 30
0.0
  0
SPLINE
  5
12a
100
AcDbEntity
  8
Layer_1
 62
7
100
AcDbSpline
 70
8
 71
3
 72
8
 73
4
 74
0
 40
0
 40
0
 40
0
 40
0
 40
1
 40
1
 40
1
 40
1
 10
260.313358
 20
206.813812
 30
0.0
 10
259.817168
 20
207.310002
 30
0.0
 10
259.538412
 20
207.982980
 30
0.0
 10
259.538412
 20
208.684698
 30
0.0
  0
LWPOLYLINE
  5
12b
100
AcDbEntity
  8
Layer_1
 62
7
100
AcDbPolyline
 90
2
 70
0
 10
276.815386
 20
206.038865
 30
0.0
 10
262.184245
 20
206.038865
 30
0.0
  0
SPLINE
  5
12c
100
AcDbEntity
  8
Layer_1
 62
7
100
AcDbSpline
 70
8
 71
3
 72
8
 73
4
 74
0
 40
0
 40
0
 40
0
 40
0
 40
1
 40
1
 40
1
 40
1
 10
259.538412
 20
227.304231
 30
0.0
 10
259.538412
 20
228.005949
 30
0.0
 10
259.259655
 20
228.678928
 30
0.0
 10
258.763465
 20
229.175117
 30
0.0
  0
SPLINE
  5
12d
100
AcDbEntity
  8
Layer_1
 62
7
100
AcDbSpline
 70
8
 71
3
 72
8
 73
4
 74
0
 40
0
 40
0
 40
0
 40
0
 40
1
 40
1
 40
1
 40
1
 10
258.763465
 20
229.175117
 30
0.0
 10
258.267276
 20
229.671307
 30
0.0
 10
257.594297
 20
229.950064
 30
0.0
 10
256.892579
 20
229.950064
 30
0.0
  0
LWPOLYLINE
  5
12e
100
AcDbEntity
  8
Layer_1
 62
7
100
AcDbPolyline
 90
2
 70
0
 10
259.538412
 20
208.684698
 30
0.0
 10
259.538412
 20
227.304231
 30
0.0
  0
SPLINE
  5
12f
100
AcDbEntity
  8
Layer_1
 62
7
100
AcDbSpline
 70
8
 71
3
 72
8
 73
4
 74
0
 40
0
 40
0
 40
0
 40
0
 40
1
 40
1
 40
1
 40
1
 10
205.556186
 20
229.950064
 30
0.0
 10
204.854467
 20
229.950064
 30
0.0
 10
204.181489
 20
229.671307
 30
0.0
 10
203.685299
 20
229.175117
 30
0.0
  0
SPLINE
  5
130
100
AcDbEntity
  8
Layer_1
 62
7
100
AcDbSpline
 70
8
 71
3
 72
8
 73
4
 74
0
 40
0
 40
0
 40
0
 40
0
 40
1
 40
1
 40
1
 40
1
 10
203.685299
 20
229.175117
 30
0.0
 10
203.189109
 20
228.678928
 30
0.0
 10
202.910353
 20
228.005949
 30
0.0
 10
202.910353
 20
227.304231
 30
0.0
  0
LWPOLYLINE
  5
131
100
AcDbEntity
  8
Layer_1
 62
7
100
AcDbPolyline
 90
2
 70
0
 10
256.892579
 20
229.950064
 30
0.0
 10
205.556186
 20
229.950064
 30
0.0
  0
SPLINE
  5
132
100
AcDbEntity
  8
Layer_1
 62
7
100
AcDbSpline
 70
8
 71
3
 72
8
 73
4
 74
0
 40
0
 40
0
 40
0
 40
0
 40
1
 40
1
 40
1
 40
1
 10
202.910353
 20
210.735736
 30
0.0
 10
202.910353
 20
210.034017
 30
0.0
 10
202.631596
 20
209.361039
 30
0.0
 10
202.135407
 20
208.864849
 30
0.0
  0
SPLINE
  5
133
100
AcDbEntity
  8
Layer_1
 62
7
100
AcDbSpline
 70
8
 71
3
 72
8
 73
4
 74
0
 40
0
 40
0
 40
0
 40
0
 40
1
 40
1
 40
1
 40
1
 10
202.135407
 20
208.864849
 30
0.0
 10
201.639217
 20
208.368659
 30
0.0
 10
200.966239
 20
208.089902
 30
0.0
 10
200.264520
 20
208.089903
 30
0.0
  0
LWPOLYLINE
  5
134
100
AcDbEntity
  8
Layer_1
 62
7
100
AcDbPolyline
 90
2
 70
0
 10
202.910353
 20
227.304231
 30
0.0
 10
202.910353
 20
210.735736
 30
0.0
  0
SPLINE
  5
135
100
AcDbEntity
  8
Layer_1
 62
7
100
AcDbSpline
 70
8
 71
3
 72
8
 73
4
 74
0
 40
0
 40
0
 40
0
 40
0
 40
1
 40
1
 40
1
 40
1
 10
175.591612
 20
208.089903
 30
0.0
 10
174.889893
 20
208.089903
 30
0.0
 10
174.216915
 20
207.811146
 30
0.0
 10
173.720725
 20
207.314956
 30
0.0
  0
SPLINE
  5
136
100
AcDbEntity
  8
Layer_1
 62
7
100
AcDbSpline
 70
8
 71
3
 72
8
 73
4
 74
0
 40
0
 40
0
 40
0
 40
0
 40
1
 40
1
 40
1
 40
1
 10
173.720725
 20
207.314956
 30
0.0
 10
173.224535
 20
206.818766
 30
0.0
 10
172.945779
 20
206.145788
 30
0.0
 10
172.945779
 20
205.444070
 30
0.0
  0
LWPOLYLINE
  5
137
100
AcDbEntity
  8
Layer_1
 62
7
100
AcDbPolyline
 90
2
 70
0
 10
200.264520
 20
208.089903
 30
0.0
 10
175.591612
 20
208.089903
 30
0.0
  0
SPLINE
  5
138
100
AcDbEntity
  8
Layer_1
 62
7
100
AcDbSpline
 70
8
 71
3
 72
8
 73
4
 74
0
 40
0
 40
0
 40
0
 40
0
 40
1
 40
1
 40
1
 40
1
 10
172.945779
 20
188.700391
 30
0.0
 10
172.945779
 20
187.998673
 30
0.0
 10
172.667022
 20
187.325695
 30
0.0
 10
172.170832
 20
186.829505
 30
0.0
  0
SPLINE
  5
139
100
AcDbEntity
  8
Layer_1
 62
7
100
AcDbSpline
 70
8
 71
3
 72
8
 73
4
 74
0
 40
0
 40
0
 40
0
 40
0
 40
1
 40
1
 40
1
 40
1
 10
172.170832
 20
186.829505
 30
0.0
 10
171.674642
 20
186.333315
 30
0.0
 10
171.001664
 20
186.054558
 30
0.0
 10
170.299946
 20
186.054558
 30
0.0
  0
LWPOLYLINE
  5
13a
100
AcDbEntity
  8
Layer_1
 62
7
100
AcDbPolyline
 90
2
 70
0
 10
172.945779
 20
205.444070
 30
0.0
 10
172.945779
 20
188.700391
 30
0.0
  0
SPLINE
  5
13b
100
AcDbEntity
  8
Layer_1
 62
7
100
AcDbSpline
 70
8
 71
3
 72
8
 73
4
 74
0
 40
0
 40
0
 40
0
 40
0
 40
1
 40
1
 40
1
 40
1
 10
127.699966
 20
186.054558
 30
0.0
 10
126.998248
 20
186.054558
 30
0.0
 10
126.325270
 20
186.333315
 30
0.0
 10
125.829080
 20
186.829505
 30
0.0
  0
SPLINE
  5
13c
100
AcDbEntity
  8
Layer_1
 62
7
100
AcDbSpline
 70
8
 71
3
 72
8
 73
4
 74
0
 40
0
 40
0
 40
0
 40
0
 40
1
 40
1
 40
1
 40
1
 10
125.829080
 20
186.829505
 30
0.0
 10
125.332890
 20
187.325695
 30
0.0
 10
125.054133
 20
187.998673
 30
0.0
 10
125.054133
 20
188.700391
 30
0.0
  0
LWPOLYLINE
  5
13d
100
AcDbEntity
  8
Layer_1
 62
7
100
AcDbPolyline
 90
2
 70
0
 10
170.299946
 20
186.054558
 30
0.0
 10
127.699966
 20
186.054558
 30
0.0
  0
SPLINE
  5
13e
100
AcDbEntity
  8
Layer_1
 62
7
100
AcDbSpline
 70
8
 71
3
 72
8
 73
4
 74
0
 40
0
 40
0
 40
0
 40
0
 40
1
 40
1
 40
1
 40
1
 10
125.054133
 20
205.444070
 30
0.0
 10
125.054133
 20
206.145788
 30
0.0
 10
124.775377
 20
206.818766
 30
0.0
 10
124.279187
 20
207.314956
 30
0.0
  0
SPLINE
  5
13f
100
AcDbEntity
  8
Layer_1
 62
7
100
AcDbSpline
 70
8
 71
3
 72
8
 73
4
 74
0
 40
0
 40
0
 40
0
 40
0
 40
1
 40
1
 40
1
 40
1
 10
124.279187
 20
207.314956
 30
0.0
 10
123.782997
 20
207.811146
 30
0.0
 10
123.110019
 20
208.089903
 30
0.0
 10
122.408300
 20
208.089903
 30
0.0
  0
LWPOLYLINE
  5
140
100
AcDbEntity
  8
Layer_1
 62
7
100
AcDbPolyline
 90
2
 70
0
 10
125.054133
 20
188.700391
 30
0.0
 10
125.054133
 20
205.444070
 30
0.0
  0
SPLINE
  5
141
100
AcDbEntity
  8
Layer_1
 62
7
100
AcDbSpline
 70
8
 71
3
 72
8
 73
4
 74
0
 40
0
 40
0
 40
0
 40
0
 40
1
 40
1
 40
1
 40
1
 10
97.735392
 20
208.089903
 30
0.0
 10
97.033674
 20
208.089902
 30
0.0
 10
96.360696
 20
208.368659
 30
0.0
 10
95.864506
 20
208.864849
 30
0.0
  0
SPLINE
  5
142
100
AcDbEntity
  8
Layer_1
 62
7
100
AcDbSpline
 70
8
 71
3
 72
8
 73
4
 74
0
 40
0
 40
0
 40
0
 40
0
 40
1
 40
1
 40
1
 40
1
 10
95.864506
 20
208.864849
 30
0.0
 10
95.368316
 20
209.361039
 30
0.0
 10
95.089559
 20
210.034017
 30
0.0
 10
95.089559
 20
210.735736
 30
0.0
  0
LWPOLYLINE
  5
143
100
AcDbEntity
  8
Layer_1
 62
7
100
AcDbPolyline
 90
2
 70
0
 10
122.408300
 20
208.089903
 30
0.0
 10
97.735392
 20
208.089903
 30
0.0
  0
SPLINE
  5
144
100
AcDbEntity
  8
Layer_1
 62
7
100
AcDbSpline
 70
8
 71
3
 72
8
 73
4
 74
0
 40
0
 40
0
 40
0
 40
0
 40
1
 40
1
 40
1
 40
1
 10
95.089559
 20
227.304231
 30
0.0
 10
95.089559
 20
228.005949
 30
0.0
 10
94.810803
 20
228.678928
 30
0.0
 10
94.314613
 20
229.175117
 30
0.0
  0
SPLINE
  5
145
100
AcDbEntity
  8
Layer_1
 62
7
100
AcDbSpline
 70
8
 71
3
 72
8
 73
4
 74
0
 40
0
 40
0
 40
0
 40
0
 40
1
 40
1
 40
1
 40
1
 10
94.314613
 20
229.175117
 30
0.0
 10
93.818423
 20
229.671307
 30
0.0
 10
93.145445
 20
229.950064
 30
0.0
 10
92.443726
 20
229.950064
 30
0.0
  0
LWPOLYLINE
  5
146
100
AcDbEntity
  8
Layer_1
 62
7
100
AcDbPolyline
 90
2
 70
0
 10
95.089559
 20
210.735736
 30
0.0
 10
95.089559
 20
227.304231
 30
0.0
  0
LWPOLYLINE
  5
147
100
AcDbEntity
  8
Layer_1
 62
7
100
AcDbPolyline
 90
3
 70
0
 10
92.443726
 20
229.950064
 30
0.0
 10
2.695729
 20
229.950064
 30
0.0
 10
2.695729
 20
229.950064
 30
0.0
  0
SPLINE
  5
148
100
AcDbEntity
  8
Layer_1
 62
7
100
AcDbSpline
 70
8
 71
3
 72
8
 73
4
 74
0
 40
0
 40
0
 40
0
 40
0
 40
1
 40
1
 40
1
 40
1
 10
10.981010
 20
219.950159
 30
0.0
 10
12.348630
 20
219.950159
 30
0.0
 10
13.449593
 20
218.813044
 30
0.0
 10
13.449593
 20
217.400444
 30
0.0
  0
SPLINE
  5
149
100
AcDbEntity
  8
Layer_1
 62
7
100
AcDbSpline
 70
8
 71
3
 72
8
 73
4
 74
0
 40
0
 40
0
 40
0
 40
0
 40
1
 40
1
 40
1
 40
1
 10
13.449593
 20
217.400444
 30
0.0
 10
13.449593
 20
215.987844
 30
0.0
 10
12.348630
 20
214.850729
 30
0.0
 10
10.981010
 20
214.850729
 30
0.0
  0
LWPOLYLINE
  5
14a
100
AcDbEntity
  8
Layer_1
 62
7
100
AcDbPolyline
 90
2
 70
0
 10
8.018401
 20
219.950159
 30
0.0
 10
10.981010
 20
219.950159
 30
0.0
  0
SPLINE
  5
14b
100
AcDbEntity
  8
Layer_1
 62
7
100
AcDbSpline
 70
8
 71
3
 72
8
 73
4
 74
0
 40
0
 40
0
 40
0
 40
0
 40
1
 40
1
 40
1
 40
1
 10
8.018401
 20
214.850729
 30
0.0
 10
6.650781
 20
214.850729
 30
0.0
 10
5.549818
 20
215.987844
 30
0.0
 10
5.549818
 20
217.400444
 30
0.0
  0
SPLINE
  5
14c
100
AcDbEntity
  8
Layer_1
 62
7
100
AcDbSpline
 70
8
 71
3
 72
8
 73
4
 74
0
 40
0
 40
0
 40
0
 40
0
 40
1
 40
1
 40
1
 40
1
 10
5.549818
 20
217.400444
 30
0.0
 10
5.549818
 20
218.813044
 30
0.0
 10
6.650781
 20
219.950159
 30
0.0
 10
8.018401
 20
219.950159
 30
0.0
  0
LWPOLYLINE
  5
14d
100
AcDbEntity
  8
Layer_1
 62
7
100
AcDbPolyline
 90
2
 70
0
 10
10.981010
 20
214.850729
 30
0.0
 10
8.018401
 20
214.850729
 30
0.0
  0
LWPOLYLINE
  5
14e
100
AcDbEntity
  8
Layer_1
 62
7
100
AcDbPolyline
 90
1
 70
1
 10
8.018401
 20
219.950159
 30
0.0
  0
SPLINE
  5
14f
100
AcDbEntity
  8
Layer_1
 62
7
100
AcDbSpline
 70
8
 71
3
 72
8
 73
4
 74
0
 40
0
 40
0
 40
0
 40
0
 40
1
 40
1
 40
1
 40
1
 10
290.980938
 20
219.950159
 30
0.0
 10
292.348542
 20
219.950159
 30
0.0
 10
293.449526
 20
218.813044
 30
0.0
 10
293.449526
 20
217.400444
 30
0.0
  0
SPLINE
  5
150
100
AcDbEntity
  8
Layer_1
 62
7
100
AcDbSpline
 70
8
 71
3
 72
8
 73
4
 74
0
 40
0
 40
0
 40
0
 40
0
 40
1
 40
1
 40
1
 40
1
 10
293.449526
 20
217.400444
 30
0.0
 10
293.449526
 20
215.987844
 30
0.0
 10
292.348542
 20
214.850729
 30
0.0
 10
290.980938
 20
214.850729
 30
0.0
  0
LWPOLYLINE
  5
151
100
AcDbEntity
  8
Layer_1
 62
7
100
AcDbPolyline
 90
2
 70
0
 10
288.018848
 20
219.950159
 30
0.0
 10
290.980938
 20
219.950159
 30
0.0
  0
SPLINE
  5
152
100
AcDbEntity
  8
Layer_1
 62
7
100
AcDbSpline
 70
8
 71
3
 72
8
 73
4
 74
0
 40
0
 40
0
 40
0
 40
0
 40
1
 40
1
 40
1
 40
1
 10
288.018848
 20
214.850729
 30
0.0
 10
286.651217
 20
214.850729
 30
0.0
 10
285.549731
 20
215.987844
 30
0.0
 10
285.549731
 20
217.400444
 30
0.0
  0
SPLINE
  5
153
100
AcDbEntity
  8
Layer_1
 62
7
100
AcDbSpline
 70
8
 71
3
 72
8
 73
4
 74
0
 40
0
 40
0
 40
0
 40
0
 40
1
 40
1
 40
1
 40
1
 10
285.549731
 20
217.400444
 30
0.0
 10
285.549731
 20
218.813044
 30
0.0
 10
286.651217
 20
219.950159
 30
0.0
 10
288.018848
 20
219.950159
 30
0.0
  0
LWPOLYLINE
  5
154
100
AcDbEntity
  8
Layer_1
 62
7
100
AcDbPolyline
 90
2
 70
0
 10
290.980938
 20
214.850729
 30
0.0
 10
288.018848
 20
214.850729
 30
0.0
  0
LWPOLYLINE
  5
155
100
AcDbEntity
  8
Layer_1
 62
7
100
AcDbPolyline
 90
1
 70
1
 10
288.018848
 20
219.950159
 30
0.0
  0
SPLINE
  5
156
100
AcDbEntity
  8
Layer_1
 62
7
100
AcDbSpline
 70
8
 71
3
 72
8
 73
4
 74
0
 40
0
 40
0
 40
0
 40
0
 40
1
 40
1
 40
1
 40
1
 10
10.981010
 20
165.950363
 30
0.0
 10
12.348630
 20
165.950363
 30
0.0
 10
13.449593
 20
164.813248
 30
0.0
 10
13.449593
 20
163.400648
 30
0.0
  0
SPLINE
  5
157
100
AcDbEntity
  8
Layer_1
 62
7
100
AcDbSpline
 70
8
 71
3
 72
8
 73
4
 74
0
 40
0
 40
0
 40
0
 40
0
 40
1
 40
1
 40
1
 40
1
 10
13.449593
 20
163.400648
 30
0.0
 10
13.449593
 20
161.988048
 30
0.0
 10
12.348630
 20
160.850414
 30
0.0
 10
10.981010
 20
160.850414
 30
0.0
  0
LWPOLYLINE
  5
158
100
AcDbEntity
  8
Layer_1
 62
7
100
AcDbPolyline
 90
2
 70
0
 10
8.018401
 20
165.950363
 30
0.0
 10
10.981010
 20
165.950363
 30
0.0
  0
SPLINE
  5
159
100
AcDbEntity
  8
Layer_1
 62
7
100
AcDbSpline
 70
8
 71
3
 72
8
 73
4
 74
0
 40
0
 40
0
 40
0
 40
0
 40
1
 40
1
 40
1
 40
1
 10
8.018401
 20
160.850414
 30
0.0
 10
6.650781
 20
160.850414
 30
0.0
 10
5.549818
 20
161.988048
 30
0.0
 10
5.549818
 20
163.400648
 30
0.0
  0
SPLINE
  5
15a
100
AcDbEntity
  8
Layer_1
 62
7
100
AcDbSpline
 70
8
 71
3
 72
8
 73
4
 74
0
 40
0
 40
0
 40
0
 40
0
 40
1
 40
1
 40
1
 40
1
 10
5.549818
 20
163.400648
 30
0.0
 10
5.549818
 20
164.813248
 30
0.0
 10
6.650781
 20
165.950361
 30
0.0
 10
8.018401
 20
165.950363
 30
0.0
  0
LWPOLYLINE
  5
15b
100
AcDbEntity
  8
Layer_1
 62
7
100
AcDbPolyline
 90
2
 70
0
 10
10.981010
 20
160.850414
 30
0.0
 10
8.018401
 20
160.850414
 30
0.0
  0
LWPOLYLINE
  5
15c
100
AcDbEntity
  8
Layer_1
 62
7
100
AcDbPolyline
 90
1
 70
1
 10
8.018401
 20
165.950363
 30
0.0
  0
SPLINE
  5
15d
100
AcDbEntity
  8
Layer_1
 62
7
100
AcDbSpline
 70
8
 71
3
 72
8
 73
4
 74
0
 40
0
 40
0
 40
0
 40
0
 40
1
 40
1
 40
1
 40
1
 10
290.980938
 20
165.950363
 30
0.0
 10
292.348542
 20
165.950363
 30
0.0
 10
293.449526
 20
164.813248
 30
0.0
 10
293.449526
 20
163.400648
 30
0.0
  0
SPLINE
  5
15e
100
AcDbEntity
  8
Layer_1
 62
7
100
AcDbSpline
 70
8
 71
3
 72
8
 73
4
 74
0
 40
0
 40
0
 40
0
 40
0
 40
1
 40
1
 40
1
 40
1
 10
293.449526
 20
163.400648
 30
0.0
 10
293.449526
 20
161.988048
 30
0.0
 10
292.348542
 20
160.850414
 30
0.0
 10
290.980938
 20
160.850414
 30
0.0
  0
LWPOLYLINE
  5
15f
100
AcDbEntity
  8
Layer_1
 62
7
100
AcDbPolyline
 90
2
 70
0
 10
288.018848
 20
165.950363
 30
0.0
 10
290.980938
 20
165.950363
 30
0.0
  0
SPLINE
  5
160
100
AcDbEntity
  8
Layer_1
 62
7
100
AcDbSpline
 70
8
 71
3
 72
8
 73
4
 74
0
 40
0
 40
0
 40
0
 40
0
 40
1
 40
1
 40
1
 40
1
 10
288.018848
 20
160.850414
 30
0.0
 10
286.651217
 20
160.850414
 30
0.0
 10
285.549731
 20
161.988048
 30
0.0
 10
285.549731
 20
163.400648
 30
0.0
  0
SPLINE
  5
161
100
AcDbEntity
  8
Layer_1
 62
7
100
AcDbSpline
 70
8
 71
3
 72
8
 73
4
 74
0
 40
0
 40
0
 40
0
 40
0
 40
1
 40
1
 40
1
 40
1
 10
285.549731
 20
163.400648
 30
0.0
 10
285.549731
 20
164.813248
 30
0.0
 10
286.651217
 20
165.950361
 30
0.0
 10
288.018848
 20
165.950363
 30
0.0
  0
LWPOLYLINE
  5
162
100
AcDbEntity
  8
Layer_1
 62
7
100
AcDbPolyline
 90
2
 70
0
 10
290.980938
 20
160.850414
 30
0.0
 10
288.018848
 20
160.850414
 30
0.0
  0
LWPOLYLINE
  5
163
100
AcDbEntity
  8
Layer_1
 62
7
100
AcDbPolyline
 90
1
 70
1
 10
288.018848
 20
165.950363
 30
0.0
  0
SPLINE
  5
164
100
AcDbEntity
  8
Layer_1
 62
7
100
AcDbSpline
 70
8
 71
3
 72
8
 73
4
 74
0
 40
0
 40
0
 40
0
 40
0
 40
1
 40
1
 40
1
 40
1
 10
10.981010
 20
111.950048
 30
0.0
 10
12.348630
 20
111.950048
 30
0.0
 10
13.449593
 20
110.812932
 30
0.0
 10
13.449593
 20
109.400333
 30
0.0
  0
SPLINE
  5
165
100
AcDbEntity
  8
Layer_1
 62
7
100
AcDbSpline
 70
8
 71
3
 72
8
 73
4
 74
0
 40
0
 40
0
 40
0
 40
0
 40
1
 40
1
 40
1
 40
1
 10
13.449593
 20
109.400333
 30
0.0
 10
13.449593
 20
107.987733
 30
0.0
 10
12.348630
 20
106.850617
 30
0.0
 10
10.981010
 20
106.850617
 30
0.0
  0
LWPOLYLINE
  5
166
100
AcDbEntity
  8
Layer_1
 62
7
100
AcDbPolyline
 90
2
 70
0
 10
8.018401
 20
111.950048
 30
0.0
 10
10.981010
 20
111.950048
 30
0.0
  0
SPLINE
  5
167
100
AcDbEntity
  8
Layer_1
 62
7
100
AcDbSpline
 70
8
 71
3
 72
8
 73
4
 74
0
 40
0
 40
0
 40
0
 40
0
 40
1
 40
1
 40
1
 40
1
 10
8.018401
 20
106.850617
 30
0.0
 10
6.650781
 20
106.850617
 30
0.0
 10
5.549818
 20
107.987733
 30
0.0
 10
5.549818
 20
109.400333
 30
0.0
  0
SPLINE
  5
168
100
AcDbEntity
  8
Layer_1
 62
7
100
AcDbSpline
 70
8
 71
3
 72
8
 73
4
 74
0
 40
0
 40
0
 40
0
 40
0
 40
1
 40
1
 40
1
 40
1
 10
5.549818
 20
109.400333
 30
0.0
 10
5.549818
 20
110.812932
 30
0.0
 10
6.650781
 20
111.950048
 30
0.0
 10
8.018401
 20
111.950048
 30
0.0
  0
LWPOLYLINE
  5
169
100
AcDbEntity
  8
Layer_1
 62
7
100
AcDbPolyline
 90
2
 70
0
 10
10.981010
 20
106.850617
 30
0.0
 10
8.018401
 20
106.850617
 30
0.0
  0
LWPOLYLINE
  5
16a
100
AcDbEntity
  8
Layer_1
 62
7
100
AcDbPolyline
 90
1
 70
1
 10
8.018401
 20
111.950048
 30
0.0
  0
SPLINE
  5
16b
100
AcDbEntity
  8
Layer_1
 62
7
100
AcDbSpline
 70
8
 71
3
 72
8
 73
4
 74
0
 40
0
 40
0
 40
0
 40
0
 40
1
 40
1
 40
1
 40
1
 10
290.980938
 20
111.950048
 30
0.0
 10
292.348542
 20
111.950048
 30
0.0
 10
293.449526
 20
110.812932
 30
0.0
 10
293.449526
 20
109.400333
 30
0.0
  0
SPLINE
  5
16c
100
AcDbEntity
  8
Layer_1
 62
7
100
AcDbSpline
 70
8
 71
3
 72
8
 73
4
 74
0
 40
0
 40
0
 40
0
 40
0
 40
1
 40
1
 40
1
 40
1
 10
293.449526
 20
109.400333
 30
0.0
 10
293.449526
 20
107.987733
 30
0.0
 10
292.348542
 20
106.850617
 30
0.0
 10
290.980938
 20
106.850617
 30
0.0
  0
LWPOLYLINE
  5
16d
100
AcDbEntity
  8
Layer_1
 62
7
100
AcDbPolyline
 90
2
 70
0
 10
288.018848
 20
111.950048
 30
0.0
 10
290.980938
 20
111.950048
 30
0.0
  0
SPLINE
  5
16e
100
AcDbEntity
  8
Layer_1
 62
7
100
AcDbSpline
 70
8
 71
3
 72
8
 73
4
 74
0
 40
0
 40
0
 40
0
 40
0
 40
1
 40
1
 40
1
 40
1
 10
288.018848
 20
106.850617
 30
0.0
 10
286.651217
 20
106.850617
 30
0.0
 10
285.549731
 20
107.987733
 30
0.0
 10
285.549731
 20
109.400333
 30
0.0
  0
SPLINE
  5
16f
100
AcDbEntity
  8
Layer_1
 62
7
100
AcDbSpline
 70
8
 71
3
 72
8
 73
4
 74
0
 40
0
 40
0
 40
0
 40
0
 40
1
 40
1
 40
1
 40
1
 10
285.549731
 20
109.400333
 30
0.0
 10
285.549731
 20
110.812932
 30
0.0
 10
286.651217
 20
111.950048
 30
0.0
 10
288.018848
 20
111.950048
 30
0.0
  0
LWPOLYLINE
  5
170
100
AcDbEntity
  8
Layer_1
 62
7
100
AcDbPolyline
 90
2
 70
0
 10
290.980938
 20
106.850617
 30
0.0
 10
288.018848
 20
106.850617
 30
0.0
  0
LWPOLYLINE
  5
171
100
AcDbEntity
  8
Layer_1
 62
7
100
AcDbPolyline
 90
1
 70
1
 10
288.018848
 20
111.950048
 30
0.0
  0
SPLINE
  5
172
100
AcDbEntity
  8
Layer_1
 62
7
100
AcDbSpline
 70
8
 71
3
 72
8
 73
4
 74
0
 40
0
 40
0
 40
0
 40
0
 40
1
 40
1
 40
1
 40
1
 10
10.981010
 20
55.950374
 30
0.0
 10
12.348630
 20
55.950374
 30
0.0
 10
13.449593
 20
54.813259
 30
0.0
 10
13.449593
 20
53.400659
 30
0.0
  0
SPLINE
  5
173
100
AcDbEntity
  8
Layer_1
 62
7
100
AcDbSpline
 70
8
 71
3
 72
8
 73
4
 74
0
 40
0
 40
0
 40
0
 40
0
 40
1
 40
1
 40
1
 40
1
 10
13.449593
 20
53.400659
 30
0.0
 10
13.449593
 20
51.988059
 30
0.0
 10
12.348630
 20
50.850428
 30
0.0
 10
10.981010
 20
50.850428
 30
0.0
  0
LWPOLYLINE
  5
174
100
AcDbEntity
  8
Layer_1
 62
7
100
AcDbPolyline
 90
2
 70
0
 10
8.018401
 20
55.950374
 30
0.0
 10
10.981010
 20
55.950374
 30
0.0
  0
SPLINE
  5
175
100
AcDbEntity
  8
Layer_1
 62
7
100
AcDbSpline
 70
8
 71
3
 72
8
 73
4
 74
0
 40
0
 40
0
 40
0
 40
0
 40
1
 40
1
 40
1
 40
1
 10
8.018401
 20
50.850428
 30
0.0
 10
6.650781
 20
50.850428
 30
0.0
 10
5.549818
 20
51.988059
 30
0.0
 10
5.549818
 20
53.400659
 30
0.0
  0
SPLINE
  5
176
100
AcDbEntity
  8
Layer_1
 62
7
100
AcDbSpline
 70
8
 71
3
 72
8
 73
4
 74
0
 40
0
 40
0
 40
0
 40
0
 40
1
 40
1
 40
1
 40
1
 10
5.549818
 20
53.400659
 30
0.0
 10
5.549818
 20
54.813259
 30
0.0
 10
6.650781
 20
55.950374
 30
0.0
 10
8.018401
 20
55.950374
 30
0.0
  0
LWPOLYLINE
  5
177
100
AcDbEntity
  8
Layer_1
 62
7
100
AcDbPolyline
 90
2
 70
0
 10
10.981010
 20
50.850428
 30
0.0
 10
8.018401
 20
50.850428
 30
0.0
  0
LWPOLYLINE
  5
178
100
AcDbEntity
  8
Layer_1
 62
7
100
AcDbPolyline
 90
1
 70
1
 10
8.018401
 20
55.950374
 30
0.0
  0
SPLINE
  5
179
100
AcDbEntity
  8
Layer_1
 62
7
100
AcDbSpline
 70
8
 71
3
 72
8
 73
4
 74
0
 40
0
 40
0
 40
0
 40
0
 40
1
 40
1
 40
1
 40
1
 10
290.980938
 20
55.950374
 30
0.0
 10
292.348542
 20
55.950374
 30
0.0
 10
293.449526
 20
54.813259
 30
0.0
 10
293.449526
 20
53.400659
 30
0.0
  0
SPLINE
  5
17a
100
AcDbEntity
  8
Layer_1
 62
7
100
AcDbSpline
 70
8
 71
3
 72
8
 73
4
 74
0
 40
0
 40
0
 40
0
 40
0
 40
1
 40
1
 40
1
 40
1
 10
293.449526
 20
53.400659
 30
0.0
 10
293.449526
 20
51.988059
 30
0.0
 10
292.348542
 20
50.850428
 30
0.0
 10
290.980938
 20
50.850428
 30
0.0
  0
LWPOLYLINE
  5
17b
100
AcDbEntity
  8
Layer_1
 62
7
100
AcDbPolyline
 90
2
 70
0
 10
288.018848
 20
55.950374
 30
0.0
 10
290.980938
 20
55.950374
 30
0.0
  0
SPLINE
  5
17c
100
AcDbEntity
  8
Layer_1
 62
7
100
AcDbSpline
 70
8
 71
3
 72
8
 73
4
 74
0
 40
0
 40
0
 40
0
 40
0
 40
1
 40
1
 40
1
 40
1
 10
288.018848
 20
50.850428
 30
0.0
 10
286.651217
 20
50.850428
 30
0.0
 10
285.549731
 20
51.988059
 30
0.0
 10
285.549731
 20
53.400659
 30
0.0
  0
SPLINE
  5
17d
100
AcDbEntity
  8
Layer_1
 62
7
100
AcDbSpline
 70
8
 71
3
 72
8
 73
4
 74
0
 40
0
 40
0
 40
0
 40
0
 40
1
 40
1
 40
1
 40
1
 10
285.549731
 20
53.400659
 30
0.0
 10
285.549731
 20
54.813259
 30
0.0
 10
286.651217
 20
55.950374
 30
0.0
 10
288.018848
 20
55.950374
 30
0.0
  0
LWPOLYLINE
  5
17e
100
AcDbEntity
  8
Layer_1
 62
7
100
AcDbPolyline
 90
2
 70
0
 10
290.980938
 20
50.850428
 30
0.0
 10
288.018848
 20
50.850428
 30
0.0
  0
SPLINE
  5
17f
100
AcDbEntity
  8
Layer_1
 62
7
100
AcDbSpline
 70
8
 71
3
 72
8
 73
4
 74
0
 40
0
 40
0
 40
0
 40
0
 40
1
 40
1
 40
1
 40
1
 10
53.099881
 20
13.950358
 30
0.0
 10
54.512480
 20
13.950358
 30
0.0
 10
55.649596
 20
12.849395
 30
0.0
 10
55.649596
 20
11.481778
 30
0.0
  0
LWPOLYLINE
  5
180
100
AcDbEntity
  8
Layer_1
 62
7
100
AcDbPolyline
 90
1
 70
1
 10
288.018848
 20
55.950374
 30
0.0
  0
SPLINE
  5
181
100
AcDbEntity
  8
Layer_1
 62
7
100
AcDbSpline
 70
8
 71
3
 72
8
 73
4
 74
0
 40
0
 40
0
 40
0
 40
0
 40
1
 40
1
 40
1
 40
1
 10
55.649596
 20
8.519167
 30
0.0
 10
55.649596
 20
7.151547
 30
0.0
 10
54.512480
 20
6.050584
 30
0.0
 10
53.099881
 20
6.050584
 30
0.0
  0
SPLINE
  5
182
100
AcDbEntity
  8
Layer_1
 62
7
100
AcDbSpline
 70
8
 71
3
 72
8
 73
4
 74
0
 40
0
 40
0
 40
0
 40
0
 40
1
 40
1
 40
1
 40
1
 10
53.099881
 20
6.050584
 30
0.0
 10
51.687281
 20
6.050584
 30
0.0
 10
50.550165
 20
7.151547
 30
0.0
 10
50.550165
 20
8.519167
 30
0.0
  0
LWPOLYLINE
  5
183
100
AcDbEntity
  8
Layer_1
 62
7
100
AcDbPolyline
 90
2
 70
0
 10
55.649596
 20
11.481778
 30
0.0
 10
55.649596
 20
8.519167
 30
0.0
  0
SPLINE
  5
184
100
AcDbEntity
  8
Layer_1
 62
7
100
AcDbSpline
 70
8
 71
3
 72
8
 73
4
 74
0
 40
0
 40
0
 40
0
 40
0
 40
1
 40
1
 40
1
 40
1
 10
50.550165
 20
11.481778
 30
0.0
 10
50.550165
 20
12.849395
 30
0.0
 10
51.687281
 20
13.950358
 30
0.0
 10
53.099881
 20
13.950358
 30
0.0
  0
LWPOLYLINE
  5
185
100
AcDbEntity
  8
Layer_1
 62
7
100
AcDbPolyline
 90
2
 70
0
 10
50.550165
 20
8.519167
 30
0.0
 10
50.550165
 20
11.481778
 30
0.0
  0
SPLINE
  5
186
100
AcDbEntity
  8
Layer_1
 62
7
100
AcDbSpline
 70
8
 71
3
 72
8
 73
4
 74
0
 40
0
 40
0
 40
0
 40
0
 40
1
 40
1
 40
1
 40
1
 10
117.299570
 20
13.950358
 30
0.0
 10
118.712170
 20
13.950358
 30
0.0
 10
119.849801
 20
12.849395
 30
0.0
 10
119.849801
 20
11.481778
 30
0.0
  0
LWPOLYLINE
  5
187
100
AcDbEntity
  8
Layer_1
 62
7
100
AcDbPolyline
 90
1
 70
1
 10
53.099881
 20
13.950358
 30
0.0
  0
SPLINE
  5
188
100
AcDbEntity
  8
Layer_1
 62
7
100
AcDbSpline
 70
8
 71
3
 72
8
 73
4
 74
0
 40
0
 40
0
 40
0
 40
0
 40
1
 40
1
 40
1
 40
1
 10
119.849801
 20
8.519167
 30
0.0
 10
119.849801
 20
7.151547
 30
0.0
 10
118.712170
 20
6.050584
 30
0.0
 10
117.299570
 20
6.050584
 30
0.0
  0
SPLINE
  5
189
100
AcDbEntity
  8
Layer_1
 62
7
100
AcDbSpline
 70
8
 71
3
 72
8
 73
4
 74
0
 40
0
 40
0
 40
0
 40
0
 40
1
 40
1
 40
1
 40
1
 10
117.299570
 20
6.050584
 30
0.0
 10
115.886970
 20
6.050584
 30
0.0
 10
114.749855
 20
7.151547
 30
0.0
 10
114.749855
 20
8.519167
 30
0.0
  0
LWPOLYLINE
  5
18a
100
AcDbEntity
  8
Layer_1
 62
7
100
AcDbPolyline
 90
2
 70
0
 10
119.849801
 20
11.481778
 30
0.0
 10
119.849801
 20
8.519167
 30
0.0
  0
SPLINE
  5
18b
100
AcDbEntity
  8
Layer_1
 62
7
100
AcDbSpline
 70
8
 71
3
 72
8
 73
4
 74
0
 40
0
 40
0
 40
0
 40
0
 40
1
 40
1
 40
1
 40
1
 10
114.749855
 20
11.481778
 30
0.0
 10
114.749855
 20
12.849395
 30
0.0
 10
115.886970
 20
13.950358
 30
0.0
 10
117.299570
 20
13.950358
 30
0.0
  0
LWPOLYLINE
  5
18c
100
AcDbEntity
  8
Layer_1
 62
7
100
AcDbPolyline
 90
2
 70
0
 10
114.749855
 20
8.519167
 30
0.0
 10
114.749855
 20
11.481778
 30
0.0
  0
SPLINE
  5
18d
100
AcDbEntity
  8
Layer_1
 62
7
100
AcDbSpline
 70
8
 71
3
 72
8
 73
4
 74
0
 40
0
 40
0
 40
0
 40
0
 40
1
 40
1
 40
1
 40
1
 10
181.499778
 20
13.950358
 30
0.0
 10
182.912364
 20
13.950358
 30
0.0
 10
184.049490
 20
12.849395
 30
0.0
 10
184.049490
 20
11.481778
 30
0.0
  0
LWPOLYLINE
  5
18e
100
AcDbEntity
  8
Layer_1
 62
7
100
AcDbPolyline
 90
1
 70
1
 10
117.299570
 20
13.950358
 30
0.0
  0
SPLINE
  5
18f
100
AcDbEntity
  8
Layer_1
 62
7
100
AcDbSpline
 70
8
 71
3
 72
8
 73
4
 74
0
 40
0
 40
0
 40
0
 40
0
 40
1
 40
1
 40
1
 40
1
 10
184.049490
 20
8.519167
 30
0.0
 10
184.049490
 20
7.151547
 30
0.0
 10
182.912364
 20
6.050584
 30
0.0
 10
181.499778
 20
6.050584
 30
0.0
  0
SPLINE
  5
190
100
AcDbEntity
  8
Layer_1
 62
7
100
AcDbSpline
 70
8
 71
3
 72
8
 73
4
 74
0
 40
0
 40
0
 40
0
 40
0
 40
1
 40
1
 40
1
 40
1
 10
181.499778
 20
6.050584
 30
0.0
 10
180.087176
 20
6.050584
 30
0.0
 10
178.950063
 20
7.151547
 30
0.0
 10
178.950063
 20
8.519167
 30
0.0
  0
LWPOLYLINE
  5
191
100
AcDbEntity
  8
Layer_1
 62
7
100
AcDbPolyline
 90
2
 70
0
 10
184.049490
 20
11.481778
 30
0.0
 10
184.049490
 20
8.519167
 30
0.0
  0
SPLINE
  5
192
100
AcDbEntity
  8
Layer_1
 62
7
100
AcDbSpline
 70
8
 71
3
 72
8
 73
4
 74
0
 40
0
 40
0
 40
0
 40
0
 40
1
 40
1
 40
1
 40
1
 10
178.950063
 20
11.481778
 30
0.0
 10
178.950063
 20
12.849395
 30
0.0
 10
180.087176
 20
13.950358
 30
0.0
 10
181.499778
 20
13.950358
 30
0.0
  0
LWPOLYLINE
  5
193
100
AcDbEntity
  8
Layer_1
 62
7
100
AcDbPolyline
 90
2
 70
0
 10
178.950063
 20
8.519167
 30
0.0
 10
178.950063
 20
11.481778
 30
0.0
  0
SPLINE
  5
194
100
AcDbEntity
  8
Layer_1
 62
7
100
AcDbSpline
 70
8
 71
3
 72
8
 73
4
 74
0
 40
0
 40
0
 40
0
 40
0
 40
1
 40
1
 40
1
 40
1
 10
245.899971
 20
13.950358
 30
0.0
 10
247.312571
 20
13.950358
 30
0.0
 10
248.449686
 20
12.849395
 30
0.0
 10
248.449686
 20
11.481778
 30
0.0
  0
LWPOLYLINE
  5
195
100
AcDbEntity
  8
Layer_1
 62
7
100
AcDbPolyline
 90
1
 70
1
 10
181.499778
 20
13.950358
 30
0.0
  0
SPLINE
  5
196
100
AcDbEntity
  8
Layer_1
 62
7
100
AcDbSpline
 70
8
 71
3
 72
8
 73
4
 74
0
 40
0
 40
0
 40
0
 40
0
 40
1
 40
1
 40
1
 40
1
 10
248.449686
 20
8.519167
 30
0.0
 10
248.449686
 20
7.151547
 30
0.0
 10
247.312571
 20
6.050584
 30
0.0
 10
245.899971
 20
6.050584
 30
0.0
  0
SPLINE
  5
197
100
AcDbEntity
  8
Layer_1
 62
7
100
AcDbSpline
 70
8
 71
3
 72
8
 73
4
 74
0
 40
0
 40
0
 40
0
 40
0
 40
1
 40
1
 40
1
 40
1
 10
245.899971
 20
6.050584
 30
0.0
 10
244.487372
 20
6.050584
 30
0.0
 10
243.349740
 20
7.151547
 30
0.0
 10
243.349740
 20
8.519167
 30
0.0
  0
LWPOLYLINE
  5
198
100
AcDbEntity
  8
Layer_1
 62
7
100
AcDbPolyline
 90
2
 70
0
 10
248.449686
 20
11.481778
 30
0.0
 10
248.449686
 20
8.519167
 30
0.0
  0
SPLINE
  5
199
100
AcDbEntity
  8
Layer_1
 62
7
100
AcDbSpline
 70
8
 71
3
 72
8
 73
4
 74
0
 40
0
 40
0
 40
0
 40
0
 40
1
 40
1
 40
1
 40
1
 10
243.349740
 20
11.481778
 30
0.0
 10
243.349740
 20
12.849395
 30
0.0
 10
244.487372
 20
13.950358
 30
0.0
 10
245.899971
 20
13.950358
 30
0.0
  0
LWPOLYLINE
  5
19a
100
AcDbEntity
  8
Layer_1
 62
7
100
AcDbPolyline
 90
2
 70
0
 10
243.349740
 20
8.519167
 30
0.0
 10
243.349740
 20
11.481778
 30
0.0
  0
LWPOLYLINE
  5
19b
100
AcDbEntity
  8
Layer_1
 62
7
100
AcDbPolyline
 90
1
 70
1
 10
245.899971
 20
13.950358
 30
0.0
  0
ENDSEC
  0
SECTION
  2
OBJECTS
  0
DICTIONARY
  5
C
330
0
100
AcDbDictionary
  3
ACAD_GROUP
350
D
  3
ACAD_MLINESTYLE
350
17
  0
DICTIONARY
  5
D
330
C
100
AcDbDictionary
  0
DICTIONARY
  5
1A
330
C
100
AcDbDictionary
  0
DICTIONARY
  5
17
330
C
100
AcDbDictionary
  3
STANDARD
350
18
  0
DICTIONARY
  5
19
330
C
100
AcDbDictionary
  0
ENDSEC
  0
EOF
