<?xml version="1.0" encoding="UTF-8" standalone="no"?>
<svg
   xmlns:dc="http://purl.org/dc/elements/1.1/"
   xmlns:cc="http://creativecommons.org/ns#"
   xmlns:rdf="http://www.w3.org/1999/02/22-rdf-syntax-ns#"
   xmlns:svg="http://www.w3.org/2000/svg"
   xmlns="http://www.w3.org/2000/svg"
   xmlns:sodipodi="http://sodipodi.sourceforge.net/DTD/sodipodi-0.dtd"
   xmlns:inkscape="http://www.inkscape.org/namespaces/inkscape"
   width="298.99991mm"
   height="229.99997mm"
   viewBox="0 0 298.99991 229.99997"
   version="1.1"
   id="svg8"
   inkscape:version="1.0 (4035a4fb49, 2020-05-01)"
   sodipodi:docname="printer-base-plate.svg">
  <defs
     id="defs2">
    <inkscape:path-effect
       hide_knots="false"
       only_selected="false"
       apply_with_radius="true"
       apply_no_radius="true"
       use_knot_distance="true"
       flexible="false"
       chamfer_steps="1"
       radius="10"
       mode="F"
       method="auto"
       unit="mm"
       satellites_param="F,0,0,1,0,10,0,1 @ F,0,0,1,0,10,0,1 @ F,0,0,1,0,10,0,1 @ F,0,0,1,0,10,0,1 @ F,0,0,1,0,10,0,1 @ F,0,0,1,0,10,0,1 @ F,0,0,1,0,10,0,1 @ F,0,0,1,0,10,0,1 @ F,0,0,1,0,10,0,1 @ F,0,0,1,0,10,0,1 @ F,0,0,1,0,10,0,1 @ F,0,0,1,0,10,0,1 @ F,0,0,1,0,10,0,1 @ F,0,0,1,0,10,0,1 @ F,0,0,1,0,10,0,1 @ F,0,0,1,0,10,0,1 @ F,0,0,1,0,10,0,1 @ F,0,0,1,0,10,0,1 @ F,0,0,1,0,10,0,1 @ F,0,0,1,0,10,0,1 @ F,0,0,1,0,10,0,1 @ F,0,0,1,0,10,0,1 @ F,0,0,1,0,10,0,1 @ F,0,0,1,0,10,0,1"
       lpeversion="1"
       is_visible="true"
       id="path-effect881"
       effect="fillet_chamfer" />
    <inkscape:path-effect
       effect="fillet_chamfer"
       id="path-effect943"
       is_visible="true"
       lpeversion="1"
       satellites_param="F,0,0,1,0,2.08,0,20 @ F,0,0,1,0,1.3,0,20 @ F,0,0,1,0,2.08,0,20 @ F,0,0,1,0,1.3,0,20"
       unit="mm"
       method="auto"
       mode="F"
       radius="26"
       chamfer_steps="20"
       flexible="false"
       use_knot_distance="true"
       apply_no_radius="true"
       apply_with_radius="true"
       only_selected="false"
       hide_knots="false" />
  </defs>
  <sodipodi:namedview
     id="base"
     pagecolor="#ffffff"
     bordercolor="#666666"
     borderopacity="1.0"
     inkscape:pageopacity="0.0"
     inkscape:pageshadow="2"
     inkscape:zoom="0.98994949"
     inkscape:cx="540.77867"
     inkscape:cy="569.83293"
     inkscape:document-units="mm"
     inkscape:current-layer="layer1"
     inkscape:document-rotation="0"
     showgrid="false"
     inkscape:window-width="3840"
     inkscape:window-height="2066"
     inkscape:window-x="-11"
     inkscape:window-y="-11"
     inkscape:window-maximized="1" />
  <metadata
     id="metadata5">
    <rdf:RDF>
      <cc:Work
         rdf:about="">
        <dc:format>image/svg+xml</dc:format>
        <dc:type
           rdf:resource="http://purl.org/dc/dcmitype/StillImage" />
        <dc:title></dc:title>
      </cc:Work>
    </rdf:RDF>
  </metadata>
  <g
     inkscape:label="Layer 1"
     inkscape:groupmode="layer"
     id="layer1"
     transform="translate(393.40123,135.36525)">
    <path
       transform="matrix(0.26458333,0,0,0.26458333,-393.40123,-135.36525)"
       d="M 10.189453 0.18945312 A 9.9999988 9.9999988 0 0 0 0.18945312 10.189453 L 0.18945312 704.91016 A 9.9999988 9.9999988 0 0 0 10.189453 714.91016 L 67.285156 714.91016 A 9.9999988 9.9999988 0 0 1 77.285156 724.91016 L 77.285156 780.5 A 9.9999988 9.9999988 0 0 0 87.285156 790.5 L 142.87695 790.5 A 9.9999988 9.9999988 0 0 1 152.87695 800.5 L 152.87695 859.10352 A 9.9999988 9.9999988 0 0 0 162.87695 869.10352 L 967.58789 869.10352 A 9.9999988 9.9999988 0 0 0 977.58789 859.10352 L 977.58789 800.5 A 9.9999988 9.9999988 0 0 1 987.58789 790.5 L 1043.1797 790.5 A 9.9999988 9.9999988 0 0 0 1053.1797 780.5 L 1053.1797 724.91016 A 9.9999988 9.9999988 0 0 1 1063.1797 714.91016 L 1119.8906 714.91016 A 9.9999988 9.9999988 0 0 0 1129.8906 704.91016 L 1129.8906 10.189453 A 9.9999988 9.9999988 0 0 0 1119.8906 0.18945312 L 1066.2324 0.18945312 A 9.9999988 9.9999988 0 0 0 1056.2324 10.189453 L 1056.2324 80.5625 A 9.9999988 9.9999988 0 0 1 1046.2324 90.5625 L 990.93359 90.5625 A 9.9999988 9.9999988 0 0 1 980.93359 80.5625 L 980.93359 10.189453 A 9.9999988 9.9999988 0 0 0 970.93359 0.18945312 L 776.90625 0.18945312 A 9.9999988 9.9999988 0 0 0 766.90625 10.189453 L 766.90625 72.810547 A 9.9999988 9.9999988 0 0 1 756.90625 82.810547 L 663.6543 82.810547 A 9.9999988 9.9999988 0 0 0 653.6543 92.810547 L 653.6543 156.09375 A 9.9999988 9.9999988 0 0 1 643.6543 166.09375 L 482.64648 166.09375 A 9.9999988 9.9999988 0 0 1 472.64648 156.09375 L 472.64648 92.810547 A 9.9999988 9.9999988 0 0 0 462.64648 82.810547 L 369.39453 82.810547 A 9.9999988 9.9999988 0 0 1 359.39453 72.810547 L 359.39453 10.189453 A 9.9999988 9.9999988 0 0 0 349.39453 0.18945312 L 10.189453 0.18945312 z M 30.306641 37.984375 L 41.503906 37.984375 C 46.672864 37.984375 50.833984 42.282133 50.833984 47.621094 C 50.833984 52.960054 46.672864 57.257812 41.503906 57.257812 L 30.306641 57.257812 C 25.137683 57.257812 20.976563 52.960054 20.976562 47.621094 C 20.976562 42.282133 25.137683 37.984375 30.306641 37.984375 z M 1088.5762 37.984375 L 1099.7715 37.984375 C 1104.9404 37.984375 1109.1016 42.282133 1109.1016 47.621094 C 1109.1016 52.960054 1104.9404 57.257812 1099.7715 57.257812 L 1088.5762 57.257812 C 1083.4072 57.257812 1079.2441 52.960054 1079.2441 47.621094 C 1079.2441 42.282133 1083.4072 37.984375 1088.5762 37.984375 z M 30.306641 242.07812 L 41.503906 242.07812 C 46.672864 242.07812 50.833984 246.37588 50.833984 251.71484 C 50.833984 257.0538 46.672864 261.35352 41.503906 261.35352 L 30.306641 261.35352 C 25.137683 261.35352 20.976563 257.0538 20.976562 251.71484 C 20.976562 246.37588 25.137683 242.07813 30.306641 242.07812 z M 1088.5762 242.07812 L 1099.7715 242.07812 C 1104.9404 242.07812 1109.1016 246.37588 1109.1016 251.71484 C 1109.1016 257.0538 1104.9404 261.35352 1099.7715 261.35352 L 1088.5762 261.35352 C 1083.4072 261.35352 1079.2441 257.0538 1079.2441 251.71484 C 1079.2441 246.37588 1083.4072 242.07813 1088.5762 242.07812 z M 30.306641 446.17383 L 41.503906 446.17383 C 46.672864 446.17383 50.833984 450.47159 50.833984 455.81055 C 50.833984 461.14951 46.672864 465.44727 41.503906 465.44727 L 30.306641 465.44727 C 25.137683 465.44727 20.976563 461.14951 20.976562 455.81055 C 20.976562 450.47159 25.137683 446.17383 30.306641 446.17383 z M 1088.5762 446.17383 L 1099.7715 446.17383 C 1104.9404 446.17383 1109.1016 450.47159 1109.1016 455.81055 C 1109.1016 461.14951 1104.9404 465.44727 1099.7715 465.44727 L 1088.5762 465.44727 C 1083.4072 465.44727 1079.2441 461.14951 1079.2441 455.81055 C 1079.2441 450.47159 1083.4072 446.17383 1088.5762 446.17383 z M 30.306641 657.82617 L 41.503906 657.82617 C 46.672864 657.82617 50.833984 662.12393 50.833984 667.46289 C 50.833984 672.80185 46.672864 677.10156 41.503906 677.10156 L 30.306641 677.10156 C 25.137683 677.10156 20.976563 672.80185 20.976562 667.46289 C 20.976562 662.12393 25.137683 657.82617 30.306641 657.82617 z M 1088.5762 657.82617 L 1099.7715 657.82617 C 1104.9404 657.82617 1109.1016 662.12393 1109.1016 667.46289 C 1109.1016 672.80185 1104.9404 677.10156 1099.7715 677.10156 L 1088.5762 677.10156 C 1083.4072 677.10156 1079.2441 672.80185 1079.2441 667.46289 C 1079.2441 662.12393 1083.4072 657.82617 1088.5762 657.82617 z M 200.69336 816.56641 C 206.03232 816.56641 210.33008 820.72753 210.33008 825.89648 L 210.33008 837.09375 C 210.33008 842.26271 206.03232 846.42383 200.69336 846.42383 C 195.3544 846.42383 191.05664 842.26271 191.05664 837.09375 L 191.05664 825.89648 C 191.05664 820.72753 195.3544 816.56641 200.69336 816.56641 z M 443.33789 816.56641 C 448.67685 816.56641 452.97656 820.72753 452.97656 825.89648 L 452.97656 837.09375 C 452.97656 842.26271 448.67685 846.42383 443.33789 846.42383 C 437.99893 846.42383 433.70117 842.26271 433.70117 837.09375 L 433.70117 825.89648 C 433.70117 820.72753 437.99893 816.56641 443.33789 816.56641 z M 685.98438 816.56641 C 691.32329 816.56641 695.62109 820.72753 695.62109 825.89648 L 695.62109 837.09375 C 695.62109 842.26271 691.32329 846.42383 685.98438 846.42383 C 680.64541 846.42383 676.34766 842.26271 676.34766 837.09375 L 676.34766 825.89648 C 676.34766 820.72753 680.64541 816.56641 685.98438 816.56641 z M 929.38672 816.56641 C 934.72568 816.56641 939.02344 820.72753 939.02344 825.89648 L 939.02344 837.09375 C 939.02344 842.26271 934.72568 846.42383 929.38672 846.42383 C 924.04776 846.42383 919.74805 842.26271 919.74805 837.09375 L 919.74805 825.89648 C 919.74805 820.72753 924.04776 816.56641 929.38672 816.56641 z "
       style="stroke:#000000;stroke-width:0.377178;fill:none"
       id="rect833" />
  </g>
</svg>
