<?xml version="1.0" encoding="UTF-8" standalone="no"?>
<svg
   xmlns:dc="http://purl.org/dc/elements/1.1/"
   xmlns:cc="http://creativecommons.org/ns#"
   xmlns:rdf="http://www.w3.org/1999/02/22-rdf-syntax-ns#"
   xmlns:svg="http://www.w3.org/2000/svg"
   xmlns="http://www.w3.org/2000/svg"
   xmlns:sodipodi="http://sodipodi.sourceforge.net/DTD/sodipodi-0.dtd"
   xmlns:inkscape="http://www.inkscape.org/namespaces/inkscape"
   width="300.10001mm"
   height="230.10001mm"
   viewBox="0 0 300.10001 230.10001"
   version="1.1"
   id="svg8"
   inkscape:version="1.0 (4035a4fb49, 2020-05-01)"
   sodipodi:docname="printer-base-plate.svg">
  <defs
     id="defs2">
    <inkscape:path-effect
       hide_knots="false"
       only_selected="false"
       apply_with_radius="true"
       apply_no_radius="true"
       use_knot_distance="true"
       flexible="false"
       chamfer_steps="1"
       radius="6"
       mode="F"
       method="auto"
       unit="mm"
       satellites_param="F,0,0,1,0,6,0,1 @ F,0,0,1,0,6,0,1 @ F,0,0,1,0,6,0,1 @ F,0,0,1,0,6,0,1 @ F,0,0,1,0,6,0,1 @ F,0,0,1,0,6,0,1 @ F,0,0,1,0,6,0,1 @ F,0,0,1,0,6,0,1 @ F,0,0,1,0,6,0,1 @ F,0,0,1,0,6,0,1 @ F,0,0,1,0,6,0,1 @ F,0,0,1,0,6,0,1 @ F,0,0,1,0,6,0,1 @ F,0,0,1,0,6,0,1 @ F,0,0,1,0,6,0,1 @ F,0,0,1,0,6,0,1 @ F,0,0,1,0,6,0,1 @ F,0,0,1,0,6,0,1 @ F,0,0,1,0,6,0,1 @ F,0,0,1,0,6,0,1 @ F,0,0,1,0,6,0,1 @ F,0,0,1,0,6,0,1 @ F,0,0,1,0,6,0,1 @ F,0,0,1,0,6,0,1 @ F,0,0,1,0,6,0,1 @ F,0,0,1,0,6,0,1 @ F,0,0,1,0,6,0,1 @ F,0,0,1,0,6,0,1"
       lpeversion="1"
       is_visible="true"
       id="path-effect1488"
       effect="fillet_chamfer" />
    <inkscape:path-effect
       effect="fillet_chamfer"
       id="path-effect943"
       is_visible="true"
       lpeversion="1"
       satellites_param="F,0,0,1,0,2.08,0,20 @ F,0,0,1,0,1.3,0,20 @ F,0,0,1,0,2.08,0,20 @ F,0,0,1,0,1.3,0,20"
       unit="mm"
       method="auto"
       mode="F"
       radius="26"
       chamfer_steps="20"
       flexible="false"
       use_knot_distance="true"
       apply_no_radius="true"
       apply_with_radius="true"
       only_selected="false"
       hide_knots="false" />
  </defs>
  <sodipodi:namedview
     id="base"
     pagecolor="#ffffff"
     bordercolor="#666666"
     borderopacity="1.0"
     inkscape:pageopacity="0.0"
     inkscape:pageshadow="2"
     inkscape:zoom="1.4"
     inkscape:cx="549.43955"
     inkscape:cy="484.12037"
     inkscape:document-units="mm"
     inkscape:current-layer="layer1"
     inkscape:document-rotation="0"
     showgrid="false"
     inkscape:window-width="3840"
     inkscape:window-height="2066"
     inkscape:window-x="-11"
     inkscape:window-y="-11"
     inkscape:window-maximized="1" />
  <metadata
     id="metadata5">
    <rdf:RDF>
      <cc:Work
         rdf:about="">
        <dc:format>image/svg+xml</dc:format>
        <dc:type
           rdf:resource="http://purl.org/dc/dcmitype/StillImage" />
        <dc:title></dc:title>
      </cc:Work>
    </rdf:RDF>
  </metadata>
  <g
     inkscape:label="Layer 1"
     inkscape:groupmode="layer"
     id="layer1"
     transform="translate(393.90117,135.36548)">
    <path
       transform="matrix(0.26458333,0,0,0.26458333,-393.90117,-135.36548)"
       d="M 6.1894531 0.18945312 A 5.9999988 5.9999988 0 0 0 0.18945312 6.1894531 L 0.18945312 708.91016 A 5.9999988 5.9999988 0 0 0 6.1894531 714.91016 L 73.173828 714.91016 A 5.9999988 5.9999988 0 0 1 79.173828 720.91016 L 79.173828 784.54883 A 5.9999988 5.9999988 0 0 0 85.173828 790.54883 L 148.7168 790.54883 A 5.9999988 5.9999988 0 0 1 154.7168 796.54883 L 154.7168 863.10156 A 5.9999988 5.9999988 0 0 0 160.7168 869.10156 L 973.47656 869.10156 A 5.9999988 5.9999988 0 0 0 979.47656 863.10156 L 979.47656 796.5 A 5.9999988 5.9999988 0 0 1 985.47656 790.5 L 1049.0684 790.5 A 5.9999988 5.9999988 0 0 0 1055.0684 784.5 L 1055.0684 720.91016 A 5.9999988 5.9999988 0 0 1 1061.0684 714.91016 L 1127.6699 714.91016 A 5.9999988 5.9999988 0 0 0 1133.6699 708.91016 L 1133.6699 6.1894531 A 5.9999988 5.9999988 0 0 0 1127.6699 0.18945312 L 1064.1211 0.18945312 A 5.9999988 5.9999988 0 0 0 1058.1211 6.1894531 L 1058.1211 84.5625 A 5.9999988 5.9999988 0 0 1 1052.1211 90.5625 L 988.82227 90.5625 A 5.9999988 5.9999988 0 0 1 982.82227 84.5625 L 982.82227 6.1894531 A 5.9999988 5.9999988 0 0 0 976.82227 0.18945312 L 771.21484 0.18945312 A 5.9999988 5.9999988 0 0 0 765.21484 6.1894531 L 765.21484 73.230469 A 5.9999988 5.9999988 0 0 1 759.21484 79.230469 L 692.125 79.230469 A 5.9999988 5.9999988 0 0 1 686.125 73.230469 L 686.125 6.1894531 A 5.9999988 5.9999988 0 0 0 680.125 0.18945312 L 659.6582 0.18945312 A 5.9999988 5.9999988 0 0 0 653.6582 6.1894531 L 653.6582 167.6582 A 5.9999988 5.9999988 0 0 1 647.6582 173.6582 L 486.19922 173.6582 A 5.9999988 5.9999988 0 0 1 480.19922 167.6582 L 480.19922 6.1894531 A 5.9999988 5.9999988 0 0 0 474.19922 0.18945312 L 453.73438 0.18945312 A 5.9999988 5.9999988 0 0 0 447.73438 6.1894531 L 447.73438 73.230469 A 5.9999988 5.9999988 0 0 1 441.73438 79.230469 L 374.64453 79.230469 A 5.9999988 5.9999988 0 0 1 368.64453 73.230469 L 368.64453 6.1894531 A 5.9999988 5.9999988 0 0 0 362.64453 0.18945312 L 6.1894531 0.18945312 z M 32.197266 37.984375 L 43.392578 37.984375 C 48.561536 37.984375 52.724609 42.282133 52.724609 47.621094 C 52.724609 52.960054 48.561536 57.259766 43.392578 57.259766 L 32.197266 57.259766 C 27.028308 57.259766 22.867188 52.960054 22.867188 47.621094 C 22.867188 42.282133 27.028308 37.984375 32.197266 37.984375 z M 1090.4648 37.984375 L 1101.6621 37.984375 C 1106.8311 37.984375 1110.9922 42.282133 1110.9922 47.621094 C 1110.9922 52.960054 1106.8311 57.259766 1101.6621 57.259766 L 1090.4648 57.259766 C 1085.2959 57.259766 1081.1348 52.960054 1081.1348 47.621094 C 1081.1348 42.282133 1085.2959 37.984375 1090.4648 37.984375 z M 32.197266 242.08008 L 43.392578 242.08008 C 48.561536 242.08008 52.724609 246.37784 52.724609 251.7168 C 52.724609 257.05576 48.561536 261.35352 43.392578 261.35352 L 32.197266 261.35352 C 27.028308 261.35352 22.867188 257.05576 22.867188 251.7168 C 22.867188 246.37784 27.028308 242.08008 32.197266 242.08008 z M 1090.4648 242.08008 L 1101.6621 242.08008 C 1106.8311 242.08008 1110.9922 246.37784 1110.9922 251.7168 C 1110.9922 257.05576 1106.8311 261.35352 1101.6621 261.35352 L 1090.4648 261.35352 C 1085.2959 261.35352 1081.1348 257.05576 1081.1348 251.7168 C 1081.1348 246.37784 1085.2959 242.08008 1090.4648 242.08008 z M 32.197266 446.17383 L 43.392578 446.17383 C 48.561536 446.17383 52.724609 450.47159 52.724609 455.81055 C 52.724609 461.14951 48.561536 465.44727 43.392578 465.44727 L 32.197266 465.44727 C 27.028308 465.44727 22.867188 461.14951 22.867188 455.81055 C 22.867188 450.47159 27.028308 446.17383 32.197266 446.17383 z M 1090.4648 446.17383 L 1101.6621 446.17383 C 1106.8311 446.17383 1110.9922 450.47159 1110.9922 455.81055 C 1110.9922 461.14951 1106.8311 465.44727 1101.6621 465.44727 L 1090.4648 465.44727 C 1085.2959 465.44727 1081.1348 461.14951 1081.1348 455.81055 C 1081.1348 450.47159 1085.2959 446.17383 1090.4648 446.17383 z M 32.197266 657.82812 L 43.392578 657.82812 C 48.561536 657.82812 52.724609 662.12588 52.724609 667.46484 C 52.724609 672.8038 48.561536 677.10156 43.392578 677.10156 L 32.197266 677.10156 C 27.028308 677.10156 22.867188 672.8038 22.867188 667.46484 C 22.867188 662.12588 27.028308 657.82813 32.197266 657.82812 z M 1090.4648 657.82812 L 1101.6621 657.82812 C 1106.8311 657.82812 1110.9922 662.12588 1110.9922 667.46484 C 1110.9922 672.8038 1106.8311 677.10156 1101.6621 677.10156 L 1090.4648 677.10156 C 1085.2959 677.10156 1081.1348 672.8038 1081.1348 667.46484 C 1081.1348 662.12588 1085.2959 657.82813 1090.4648 657.82812 z M 202.58203 816.56836 C 207.92099 816.56836 212.2207 820.72948 212.2207 825.89844 L 212.2207 837.09375 C 212.2207 842.26271 207.92099 846.42383 202.58203 846.42383 C 197.24307 846.42383 192.94531 842.26271 192.94531 837.09375 L 192.94531 825.89844 C 192.94531 820.72948 197.24307 816.56836 202.58203 816.56836 z M 445.22852 816.56836 C 450.56748 816.56836 454.86523 820.72948 454.86523 825.89844 L 454.86523 837.09375 C 454.86523 842.26271 450.56748 846.42383 445.22852 846.42383 C 439.88955 846.42383 435.5918 842.26271 435.5918 837.09375 L 435.5918 825.89844 C 435.5918 820.72948 439.88955 816.56836 445.22852 816.56836 z M 687.87305 816.56836 C 693.21201 816.56836 697.51172 820.72948 697.51172 825.89844 L 697.51172 837.09375 C 697.51172 842.26271 693.21201 846.42383 687.87305 846.42383 C 682.53409 846.42383 678.23633 842.26271 678.23633 837.09375 L 678.23633 825.89844 C 678.23633 820.72948 682.53409 816.56836 687.87305 816.56836 z M 931.27539 816.56836 C 936.61435 816.56836 940.91211 820.72948 940.91211 825.89844 L 940.91211 837.09375 C 940.91211 842.26271 936.61435 846.42383 931.27539 846.42383 C 925.93643 846.42383 921.63867 842.26271 921.63867 837.09375 L 921.63867 825.89844 C 921.63867 820.72948 925.93643 816.56836 931.27539 816.56836 z "
       style="stroke:#000000;stroke-width:0.377808"
       id="rect833" />
  </g>
</svg>
